Interstate-Compressed_Bold.ufo
<glyph name="exclam" format="1">
  <advance width="202"/>
  <unicode hex="0021"/>
  <outline>
    <contour>
      <point x="155" y="364" type="line"/>
      <point x="137" y="184" type="line"/>
      <point x="65" y="184" type="line"/>
      <point x="47" y="364" type="line"/>
      <point x="47" y="700" type="line"/>
      <point x="155" y="700" type="line"/>
    </contour>
    <contour>
      <point x="166" y="55" type="curve" smooth="yes"/>
      <point x="166" y="17"/>
      <point x="140" y="-11"/>
      <point x="101" y="-11" type="curve" smooth="yes"/>
      <point x="62" y="-11"/>
      <point x="35" y="17"/>
      <point x="35" y="55" type="curve" smooth="yes"/>
      <point x="35" y="93"/>
      <point x="62" y="121"/>
      <point x="101" y="121" type="curve" smooth="yes"/>
      <point x="140" y="121"/>
      <point x="166" y="93"/>
    </contour>
  </outline>
</glyph>
<glyph name="quotedbl" format="1">
  <advance width="408"/>
  <unicode hex="0022"/>
  <outline>
    <contour>
      <point x="360" y="700" type="line"/>
      <point x="335" y="373" type="line"/>
      <point x="262" y="373" type="line"/>
      <point x="237" y="700" type="line"/>
    </contour>
    <contour>
      <point x="171" y="700" type="line"/>
      <point x="146" y="373" type="line"/>
      <point x="73" y="373" type="line"/>
      <point x="48" y="700" type="line"/>
    </contour>
  </outline>
</glyph>
<glyph name="numbersign" format="1">
  <advance width="457"/>
  <unicode hex="0023"/>
  <outline>
    <contour>
      <point x="429" y="156" type="line"/>
      <point x="368" y="156" type="line"/>
      <point x="368" y="0" type="line"/>
      <point x="267" y="0" type="line"/>
      <point x="267" y="156" type="line"/>
      <point x="190" y="156" type="line"/>
      <point x="190" y="0" type="line"/>
      <point x="89" y="0" type="line"/>
      <point x="89" y="156" type="line"/>
      <point x="28" y="156" type="line"/>
      <point x="28" y="250" type="line"/>
      <point x="89" y="250" type="line"/>
      <point x="89" y="450" type="line"/>
      <point x="28" y="450" type="line"/>
      <point x="28" y="544" type="line"/>
      <point x="89" y="544" type="line"/>
      <point x="89" y="700" type="line"/>
      <point x="190" y="700" type="line"/>
      <point x="190" y="544" type="line"/>
      <point x="267" y="544" type="line"/>
      <point x="267" y="700" type="line"/>
      <point x="368" y="700" type="line"/>
      <point x="368" y="544" type="line"/>
      <point x="429" y="544" type="line"/>
      <point x="429" y="450" type="line"/>
      <point x="368" y="450" type="line"/>
      <point x="368" y="250" type="line"/>
      <point x="429" y="250" type="line"/>
    </contour>
    <contour>
      <point x="267" y="250" type="line"/>
      <point x="267" y="450" type="line"/>
      <point x="190" y="450" type="line"/>
      <point x="190" y="250" type="line"/>
    </contour>
  </outline>
</glyph>
<glyph name="dollar" format="1">
  <advance width="344"/>
  <unicode hex="0024"/>
  <outline>
    <contour>
      <point x="324" y="167" type="curve" smooth="yes"/>
      <point x="324" y="84"/>
      <point x="286" y="25"/>
      <point x="224" y="5" type="curve"/>
      <point x="224" y="-66" type="line"/>
      <point x="117" y="-66" type="line"/>
      <point x="117" y="6" type="line"/>
      <point x="57" y="27"/>
      <point x="27" y="84"/>
      <point x="19" y="178" type="curve"/>
      <point x="126" y="197" type="line"/>
      <point x="134" y="112"/>
      <point x="148" y="95"/>
      <point x="174" y="95" type="curve" smooth="yes"/>
      <point x="204" y="95"/>
      <point x="216" y="111"/>
      <point x="216" y="157" type="curve" smooth="yes"/>
      <point x="216" y="221"/>
      <point x="195" y="253"/>
      <point x="130" y="322" type="curve" smooth="yes"/>
      <point x="60" y="395"/>
      <point x="24" y="457"/>
      <point x="24" y="537" type="curve" smooth="yes"/>
      <point x="24" y="614"/>
      <point x="55" y="673"/>
      <point x="116" y="694" type="curve"/>
      <point x="116" y="766" type="line"/>
      <point x="222" y="766" type="line"/>
      <point x="222" y="695" type="line"/>
      <point x="282" y="676"/>
      <point x="308" y="623"/>
      <point x="319" y="542" type="curve"/>
      <point x="213" y="520" type="line"/>
      <point x="205" y="589"/>
      <point x="194" y="606"/>
      <point x="169" y="606" type="curve" smooth="yes"/>
      <point x="142" y="606"/>
      <point x="131" y="590"/>
      <point x="131" y="546" type="curve" smooth="yes"/>
      <point x="131" y="500"/>
      <point x="148" y="470"/>
      <point x="204" y="412" type="curve" smooth="yes"/>
      <point x="284" y="329"/>
      <point x="324" y="262"/>
    </contour>
  </outline>
</glyph>
<glyph name="ampersand" format="1">
  <advance width="368"/>
  <unicode hex="0026"/>
  <outline>
    <contour>
      <point x="362" y="0" type="line"/>
      <point x="260" y="0" type="line"/>
      <point x="240" y="51" type="line"/>
      <point x="212" y="7"/>
      <point x="182" y="-11"/>
      <point x="143" y="-11" type="curve" smooth="yes"/>
      <point x="53" y="-11"/>
      <point x="20" y="53"/>
      <point x="20" y="170" type="curve" smooth="yes"/>
      <point x="20" y="247"/>
      <point x="48" y="325"/>
      <point x="102" y="393" type="curve"/>
      <point x="78" y="454" type="line" smooth="yes"/>
      <point x="59" y="502"/>
      <point x="47" y="536"/>
      <point x="47" y="575" type="curve" smooth="yes"/>
      <point x="47" y="658"/>
      <point x="100" y="711"/>
      <point x="181" y="711" type="curve" smooth="yes"/>
      <point x="262" y="711"/>
      <point x="294" y="667"/>
      <point x="316" y="589" type="curve"/>
      <point x="223" y="546" type="line"/>
      <point x="204" y="604"/>
      <point x="197" y="615"/>
      <point x="176" y="615" type="curve" smooth="yes"/>
      <point x="157" y="615"/>
      <point x="148" y="602"/>
      <point x="148" y="577" type="curve" smooth="yes"/>
      <point x="148" y="550"/>
      <point x="156" y="524"/>
      <point x="170" y="489" type="curve" smooth="yes"/>
      <point x="238" y="316" type="line"/>
      <point x="243" y="341"/>
      <point x="249" y="371"/>
      <point x="256" y="403" type="curve"/>
      <point x="343" y="382" type="line"/>
      <point x="326" y="298"/>
      <point x="309" y="231"/>
      <point x="293" y="176" type="curve"/>
    </contour>
    <contour>
      <point x="198" y="154" type="curve"/>
      <point x="144" y="289" type="line"/>
      <point x="129" y="254"/>
      <point x="121" y="215"/>
      <point x="121" y="179" type="curve" smooth="yes"/>
      <point x="121" y="116"/>
      <point x="131" y="86"/>
      <point x="153" y="86" type="curve" smooth="yes"/>
      <point x="169" y="86"/>
      <point x="182" y="99"/>
    </contour>
  </outline>
</glyph>
<glyph name="quotesingle" format="1">
  <advance width="221"/>
  <unicode hex="0027"/>
  <outline>
    <contour>
      <point x="173" y="700" type="line"/>
      <point x="148" y="373" type="line"/>
      <point x="73" y="373" type="line"/>
      <point x="48" y="700" type="line"/>
    </contour>
  </outline>
</glyph>
<glyph name="parenleft" format="1">
  <advance width="250"/>
  <unicode hex="0028"/>
  <outline>
    <contour>
      <point x="231" y="-68" type="curve"/>
      <point x="163" y="-110" type="line"/>
      <point x="73" y="13"/>
      <point x="28" y="152"/>
      <point x="28" y="302" type="curve" smooth="yes"/>
      <point x="28" y="455"/>
      <point x="73" y="593"/>
      <point x="163" y="716" type="curve"/>
      <point x="231" y="674" type="line"/>
      <point x="166" y="569"/>
      <point x="141" y="430"/>
      <point x="141" y="305" type="curve" smooth="yes"/>
      <point x="141" y="176"/>
      <point x="166" y="37"/>
    </contour>
  </outline>
</glyph>
<glyph name="parenright" format="1">
  <advance width="250"/>
  <unicode hex="0029"/>
  <outline>
    <contour>
      <point x="222" y="303" type="curve" smooth="yes"/>
      <point x="222" y="150"/>
      <point x="177" y="12"/>
      <point x="87" y="-111" type="curve"/>
      <point x="19" y="-68" type="line"/>
      <point x="84" y="37"/>
      <point x="109" y="176"/>
      <point x="109" y="300" type="curve" smooth="yes"/>
      <point x="109" y="429"/>
      <point x="84" y="568"/>
      <point x="19" y="673" type="curve"/>
      <point x="87" y="715" type="line"/>
      <point x="177" y="592"/>
      <point x="222" y="453"/>
    </contour>
  </outline>
</glyph>
<glyph name="asterisk" format="1">
  <advance width="357"/>
  <unicode hex="002A"/>
  <outline>
    <contour>
      <point x="334" y="510" type="line"/>
      <point x="290" y="435" type="line"/>
      <point x="201" y="510" type="line"/>
      <point x="223" y="396" type="line"/>
      <point x="133" y="396" type="line"/>
      <point x="155" y="510" type="line"/>
      <point x="66" y="435" type="line"/>
      <point x="21" y="510" type="line"/>
      <point x="130" y="549" type="line"/>
      <point x="21" y="590" type="line"/>
      <point x="66" y="665" type="line"/>
      <point x="155" y="588" type="line"/>
      <point x="133" y="703" type="line"/>
      <point x="223" y="703" type="line"/>
      <point x="201" y="588" type="line"/>
      <point x="290" y="665" type="line"/>
      <point x="334" y="590" type="line"/>
      <point x="225" y="549" type="line"/>
    </contour>
  </outline>
</glyph>
<glyph name="plus" format="1">
  <advance width="357"/>
  <unicode hex="002B"/>
  <outline>
    <contour>
      <point x="336" y="294" type="line"/>
      <point x="230" y="294" type="line"/>
      <point x="230" y="170" type="line"/>
      <point x="127" y="170" type="line"/>
      <point x="127" y="294" type="line"/>
      <point x="21" y="294" type="line"/>
      <point x="21" y="394" type="line"/>
      <point x="127" y="394" type="line"/>
      <point x="127" y="518" type="line"/>
      <point x="230" y="518" type="line"/>
      <point x="230" y="394" type="line"/>
      <point x="336" y="394" type="line"/>
    </contour>
  </outline>
</glyph>
<glyph name="comma" format="1">
  <advance width="205"/>
  <unicode hex="002C"/>
  <outline>
    <contour>
      <point x="166" y="118" type="line"/>
      <point x="102" y="-105" type="line"/>
      <point x="37" y="-105" type="line"/>
      <point x="51" y="118" type="line"/>
    </contour>
  </outline>
</glyph>
<glyph name="period" format="1">
  <advance width="205"/>
  <unicode hex="002E"/>
  <outline>
    <contour>
      <point x="171" y="56" type="curve" smooth="yes"/>
      <point x="171" y="18"/>
      <point x="143" y="-11"/>
      <point x="104" y="-11" type="curve" smooth="yes"/>
      <point x="65" y="-11"/>
      <point x="37" y="18"/>
      <point x="37" y="56" type="curve" smooth="yes"/>
      <point x="37" y="95"/>
      <point x="65" y="124"/>
      <point x="104" y="124" type="curve" smooth="yes"/>
      <point x="143" y="124"/>
      <point x="171" y="95"/>
    </contour>
  </outline>
</glyph>
<glyph name="slash" format="1">
  <advance width="277"/>
  <unicode hex="002F"/>
  <outline>
    <contour>
      <point x="288" y="790" type="line"/>
      <point x="92" y="-90" type="line"/>
      <point x="-11" y="-90" type="line"/>
      <point x="185" y="790" type="line"/>
    </contour>
  </outline>
</glyph>
<glyph name="zero" format="1">
  <advance width="370"/>
  <unicode hex="0030"/>
  <outline>
    <contour>
      <point x="341" y="352" type="curve" smooth="yes"/>
      <point x="341" y="113"/>
      <point x="305" y="-11"/>
      <point x="183" y="-11" type="curve" smooth="yes"/>
      <point x="64" y="-11"/>
      <point x="28" y="110"/>
      <point x="28" y="348" type="curve" smooth="yes"/>
      <point x="28" y="587"/>
      <point x="64" y="711"/>
      <point x="184" y="711" type="curve" smooth="yes"/>
      <point x="305" y="711"/>
      <point x="341" y="586"/>
    </contour>
    <contour>
      <point x="230" y="348" type="curve" smooth="yes"/>
      <point x="230" y="567"/>
      <point x="217" y="609"/>
      <point x="183" y="609" type="curve" smooth="yes"/>
      <point x="150" y="609"/>
      <point x="140" y="567"/>
      <point x="140" y="352" type="curve" smooth="yes"/>
      <point x="140" y="130"/>
      <point x="151" y="91"/>
      <point x="185" y="91" type="curve" smooth="yes"/>
      <point x="219" y="91"/>
      <point x="230" y="130"/>
    </contour>
  </outline>
</glyph>
<glyph name="one" format="1">
  <advance width="241"/>
  <unicode hex="0031"/>
  <outline>
    <contour>
      <point x="193" y="0" type="line"/>
      <point x="82" y="0" type="line"/>
      <point x="82" y="557" type="line"/>
      <point x="13" y="557" type="line"/>
      <point x="13" y="626" type="line"/>
      <point x="67" y="633"/>
      <point x="91" y="653"/>
      <point x="101" y="700" type="curve"/>
      <point x="193" y="700" type="line"/>
    </contour>
  </outline>
</glyph>
<glyph name="two" format="1">
  <advance width="345"/>
  <unicode hex="0032"/>
  <outline>
    <contour>
      <point x="317" y="0" type="line"/>
      <point x="25" y="0" type="line"/>
      <point x="32" y="207"/>
      <point x="62" y="277"/>
      <point x="152" y="391" type="curve" smooth="yes"/>
      <point x="192" y="441"/>
      <point x="209" y="488"/>
      <point x="209" y="538" type="curve" smooth="yes"/>
      <point x="209" y="589"/>
      <point x="202" y="610"/>
      <point x="177" y="610" type="curve" smooth="yes"/>
      <point x="150" y="610"/>
      <point x="141" y="587"/>
      <point x="133" y="511" type="curve"/>
      <point x="27" y="526" type="line"/>
      <point x="38" y="636"/>
      <point x="73" y="711"/>
      <point x="179" y="711" type="curve" smooth="yes"/>
      <point x="275" y="711"/>
      <point x="316" y="638"/>
      <point x="316" y="541" type="curve" smooth="yes"/>
      <point x="316" y="472"/>
      <point x="293" y="409"/>
      <point x="237" y="336" type="curve" smooth="yes"/>
      <point x="166" y="244"/>
      <point x="143" y="186"/>
      <point x="140" y="101" type="curve"/>
      <point x="317" y="101" type="line"/>
    </contour>
  </outline>
</glyph>
<glyph name="three" format="1">
  <advance width="355"/>
  <unicode hex="0033"/>
  <outline>
    <contour>
      <point x="326" y="206" type="curve" smooth="yes"/>
      <point x="326" y="71"/>
      <point x="272" y="-11"/>
      <point x="172" y="-11" type="curve" smooth="yes"/>
      <point x="73" y="-11"/>
      <point x="32" y="65"/>
      <point x="24" y="173" type="curve"/>
      <point x="130" y="187" type="line"/>
      <point x="135" y="119"/>
      <point x="143" y="90"/>
      <point x="174" y="90" type="curve" smooth="yes"/>
      <point x="206" y="90"/>
      <point x="217" y="122"/>
      <point x="217" y="198" type="curve" smooth="yes"/>
      <point x="217" y="298"/>
      <point x="203" y="323"/>
      <point x="139" y="323" type="curve" smooth="yes"/>
      <point x="116" y="323" type="line"/>
      <point x="116" y="421" type="line"/>
      <point x="142" y="421" type="line" smooth="yes"/>
      <point x="196" y="421"/>
      <point x="211" y="449"/>
      <point x="211" y="545" type="curve" smooth="yes"/>
      <point x="211" y="590"/>
      <point x="203" y="610"/>
      <point x="174" y="610" type="curve" smooth="yes"/>
      <point x="146" y="610"/>
      <point x="138" y="585"/>
      <point x="129" y="518" type="curve"/>
      <point x="26" y="532" type="line"/>
      <point x="39" y="638"/>
      <point x="76" y="711"/>
      <point x="177" y="711" type="curve" smooth="yes"/>
      <point x="270" y="711"/>
      <point x="320" y="644"/>
      <point x="320" y="548" type="curve" smooth="yes"/>
      <point x="320" y="444"/>
      <point x="292" y="397"/>
      <point x="240" y="379" type="curve"/>
      <point x="289" y="362"/>
      <point x="326" y="334"/>
    </contour>
  </outline>
</glyph>
<glyph name="four" format="1">
  <advance width="348"/>
  <unicode hex="0034"/>
  <outline>
    <contour>
      <point x="336" y="164" type="line"/>
      <point x="297" y="164" type="line"/>
      <point x="297" y="0" type="line"/>
      <point x="201" y="0" type="line"/>
      <point x="201" y="166" type="line"/>
      <point x="11" y="166" type="line"/>
      <point x="11" y="240" type="line"/>
      <point x="202" y="700" type="line"/>
      <point x="297" y="700" type="line"/>
      <point x="297" y="257" type="line"/>
      <point x="336" y="257" type="line"/>
    </contour>
    <contour>
      <point x="206" y="514" type="curve"/>
      <point x="197" y="477"/>
      <point x="177" y="419"/>
      <point x="160" y="373" type="curve" smooth="yes"/>
      <point x="149" y="343" type="line" smooth="yes"/>
      <point x="136" y="308"/>
      <point x="125" y="282"/>
      <point x="113" y="256" type="curve"/>
      <point x="131" y="256"/>
      <point x="147" y="257"/>
      <point x="169" y="257" type="curve" smooth="yes"/>
      <point x="202" y="257" type="line"/>
      <point x="202" y="381" type="line" smooth="yes"/>
      <point x="202" y="424"/>
      <point x="204" y="478"/>
    </contour>
  </outline>
</glyph>
<glyph name="five" format="1">
  <advance width="360"/>
  <unicode hex="0035"/>
  <outline>
    <contour>
      <point x="328" y="238" type="curve" smooth="yes"/>
      <point x="328" y="83"/>
      <point x="288" y="-11"/>
      <point x="174" y="-11" type="curve" smooth="yes"/>
      <point x="80" y="-11"/>
      <point x="40" y="61"/>
      <point x="30" y="167" type="curve"/>
      <point x="136" y="181" type="line"/>
      <point x="143" y="119"/>
      <point x="148" y="90"/>
      <point x="179" y="90" type="curve" smooth="yes"/>
      <point x="217" y="90"/>
      <point x="220" y="137"/>
      <point x="220" y="235" type="curve" smooth="yes"/>
      <point x="220" y="333"/>
      <point x="211" y="377"/>
      <point x="173" y="377" type="curve" smooth="yes"/>
      <point x="147" y="377"/>
      <point x="132" y="359"/>
      <point x="119" y="325" type="curve"/>
      <point x="34" y="336" type="line"/>
      <point x="48" y="700" type="line"/>
      <point x="315" y="700" type="line"/>
      <point x="315" y="600" type="line"/>
      <point x="143" y="600" type="line"/>
      <point x="136" y="451" type="line"/>
      <point x="150" y="467"/>
      <point x="169" y="478"/>
      <point x="202" y="478" type="curve" smooth="yes"/>
      <point x="293" y="478"/>
      <point x="328" y="397"/>
    </contour>
  </outline>
</glyph>
<glyph name="six" format="1">
  <advance width="355"/>
  <unicode hex="0036"/>
  <outline>
    <contour>
      <point x="333" y="216" type="curve" smooth="yes"/>
      <point x="333" y="76"/>
      <point x="277" y="-11"/>
      <point x="176" y="-11" type="curve" smooth="yes"/>
      <point x="82" y="-11"/>
      <point x="29" y="71"/>
      <point x="29" y="229" type="curve" smooth="yes"/>
      <point x="29" y="501"/>
      <point x="118" y="633"/>
      <point x="227" y="716" type="curve"/>
      <point x="292" y="634" type="line"/>
      <point x="207" y="576"/>
      <point x="152" y="487"/>
      <point x="137" y="392" type="curve"/>
      <point x="153" y="415"/>
      <point x="177" y="432"/>
      <point x="207" y="432" type="curve" smooth="yes"/>
      <point x="290" y="432"/>
      <point x="333" y="345"/>
    </contour>
    <contour>
      <point x="225" y="210" type="curve" smooth="yes"/>
      <point x="225" y="286"/>
      <point x="213" y="334"/>
      <point x="180" y="334" type="curve" smooth="yes"/>
      <point x="146" y="334"/>
      <point x="134" y="291"/>
      <point x="134" y="206" type="curve" smooth="yes"/>
      <point x="134" y="125"/>
      <point x="151" y="88"/>
      <point x="179" y="88" type="curve" smooth="yes"/>
      <point x="210" y="88"/>
      <point x="225" y="128"/>
    </contour>
  </outline>
</glyph>
<glyph name="seven" format="1">
  <advance width="343"/>
  <unicode hex="0037"/>
  <outline>
    <contour>
      <point x="317" y="602" type="line"/>
      <point x="200" y="410"/>
      <point x="189" y="260"/>
      <point x="189" y="0" type="curve"/>
      <point x="81" y="0" type="line"/>
      <point x="81" y="191"/>
      <point x="94" y="408"/>
      <point x="211" y="599" type="curve"/>
      <point x="15" y="599" type="line"/>
      <point x="15" y="700" type="line"/>
      <point x="317" y="700" type="line"/>
    </contour>
  </outline>
</glyph>
<glyph name="eight" format="1">
  <advance width="352"/>
  <unicode hex="0038"/>
  <outline>
    <contour>
      <point x="326" y="209" type="curve" smooth="yes"/>
      <point x="326" y="61"/>
      <point x="269" y="-11"/>
      <point x="174" y="-11" type="curve" smooth="yes"/>
      <point x="84" y="-11"/>
      <point x="26" y="64"/>
      <point x="26" y="208" type="curve" smooth="yes"/>
      <point x="26" y="302"/>
      <point x="52" y="350"/>
      <point x="91" y="383" type="curve"/>
      <point x="58" y="410"/>
      <point x="32" y="455"/>
      <point x="32" y="526" type="curve" smooth="yes"/>
      <point x="32" y="627"/>
      <point x="84" y="711"/>
      <point x="176" y="711" type="curve" smooth="yes"/>
      <point x="275" y="711"/>
      <point x="321" y="623"/>
      <point x="321" y="527" type="curve" smooth="yes"/>
      <point x="321" y="456"/>
      <point x="295" y="414"/>
      <point x="261" y="385" type="curve"/>
      <point x="301" y="353"/>
      <point x="326" y="302"/>
    </contour>
    <contour>
      <point x="215" y="522" type="curve" smooth="yes"/>
      <point x="215" y="587"/>
      <point x="200" y="612"/>
      <point x="176" y="612" type="curve" smooth="yes"/>
      <point x="152" y="612"/>
      <point x="137" y="590"/>
      <point x="137" y="525" type="curve" smooth="yes"/>
      <point x="137" y="473"/>
      <point x="151" y="434"/>
      <point x="176" y="434" type="curve" smooth="yes"/>
      <point x="201" y="434"/>
      <point x="215" y="471"/>
    </contour>
    <contour>
      <point x="219" y="210" type="curve" smooth="yes"/>
      <point x="219" y="297"/>
      <point x="202" y="332"/>
      <point x="175" y="332" type="curve" smooth="yes"/>
      <point x="148" y="332"/>
      <point x="133" y="296"/>
      <point x="133" y="212" type="curve" smooth="yes"/>
      <point x="133" y="122"/>
      <point x="149" y="90"/>
      <point x="177" y="90" type="curve" smooth="yes"/>
      <point x="203" y="90"/>
      <point x="219" y="119"/>
    </contour>
  </outline>
</glyph>
<glyph name="nine" format="1">
  <advance width="355"/>
  <unicode hex="0039"/>
  <outline>
    <contour>
      <point x="327" y="471" type="curve" smooth="yes"/>
      <point x="327" y="199"/>
      <point x="237" y="67"/>
      <point x="128" y="-16" type="curve"/>
      <point x="63" y="66" type="line"/>
      <point x="149" y="124"/>
      <point x="203" y="213"/>
      <point x="218" y="308" type="curve"/>
      <point x="202" y="285"/>
      <point x="179" y="268"/>
      <point x="148" y="268" type="curve" smooth="yes"/>
      <point x="65" y="268"/>
      <point x="22" y="355"/>
      <point x="22" y="484" type="curve" smooth="yes"/>
      <point x="22" y="624"/>
      <point x="78" y="711"/>
      <point x="179" y="711" type="curve" smooth="yes"/>
      <point x="273" y="711"/>
      <point x="327" y="629"/>
    </contour>
    <contour>
      <point x="221" y="494" type="curve" smooth="yes"/>
      <point x="221" y="575"/>
      <point x="204" y="612"/>
      <point x="177" y="612" type="curve" smooth="yes"/>
      <point x="145" y="612"/>
      <point x="130" y="572"/>
      <point x="130" y="490" type="curve" smooth="yes"/>
      <point x="130" y="414"/>
      <point x="143" y="366"/>
      <point x="175" y="366" type="curve" smooth="yes"/>
      <point x="210" y="366"/>
      <point x="221" y="409"/>
    </contour>
  </outline>
</glyph>
<glyph name="colon" format="1">
  <advance width="205"/>
  <unicode hex="003A"/>
  <outline>
    <contour>
      <point x="171" y="469" type="curve" smooth="yes"/>
      <point x="171" y="430"/>
      <point x="143" y="401"/>
      <point x="104" y="401" type="curve" smooth="yes"/>
      <point x="65" y="401"/>
      <point x="37" y="430"/>
      <point x="37" y="469" type="curve" smooth="yes"/>
      <point x="37" y="508"/>
      <point x="65" y="536"/>
      <point x="104" y="536" type="curve" smooth="yes"/>
      <point x="143" y="536"/>
      <point x="171" y="508"/>
    </contour>
    <contour>
      <point x="171" y="56" type="curve" smooth="yes"/>
      <point x="171" y="17"/>
      <point x="143" y="-11"/>
      <point x="104" y="-11" type="curve" smooth="yes"/>
      <point x="65" y="-11"/>
      <point x="37" y="17"/>
      <point x="37" y="56" type="curve" smooth="yes"/>
      <point x="37" y="95"/>
      <point x="65" y="124"/>
      <point x="104" y="124" type="curve" smooth="yes"/>
      <point x="143" y="124"/>
      <point x="171" y="95"/>
    </contour>
  </outline>
</glyph>
<glyph name="semicolon" format="1">
  <advance width="205"/>
  <unicode hex="003B"/>
  <outline>
    <contour>
      <point x="171" y="469" type="curve" smooth="yes"/>
      <point x="171" y="430"/>
      <point x="143" y="401"/>
      <point x="104" y="401" type="curve" smooth="yes"/>
      <point x="65" y="401"/>
      <point x="37" y="430"/>
      <point x="37" y="469" type="curve" smooth="yes"/>
      <point x="37" y="507"/>
      <point x="65" y="536"/>
      <point x="104" y="536" type="curve" smooth="yes"/>
      <point x="143" y="536"/>
      <point x="171" y="507"/>
    </contour>
    <contour>
      <point x="163" y="118" type="line"/>
      <point x="99" y="-105" type="line"/>
      <point x="34" y="-105" type="line"/>
      <point x="48" y="118" type="line"/>
    </contour>
  </outline>
</glyph>
<glyph name="less" format="1">
  <advance width="264"/>
  <unicode hex="003C"/>
  <outline>
    <contour>
      <point x="233" y="98" type="line"/>
      <point x="23" y="294" type="line"/>
      <point x="23" y="394" type="line"/>
      <point x="233" y="590" type="line"/>
      <point x="233" y="453" type="line"/>
      <point x="108" y="345" type="line"/>
      <point x="233" y="236" type="line"/>
    </contour>
  </outline>
</glyph>
<glyph name="equal" format="1">
  <advance width="399"/>
  <unicode hex="003D"/>
  <outline>
    <contour>
      <point x="350" y="390" type="line"/>
      <point x="49" y="390" type="line"/>
      <point x="49" y="494" type="line"/>
      <point x="350" y="494" type="line"/>
    </contour>
    <contour>
      <point x="350" y="194" type="line"/>
      <point x="49" y="194" type="line"/>
      <point x="49" y="298" type="line"/>
      <point x="350" y="298" type="line"/>
    </contour>
  </outline>
</glyph>
<glyph name="greater" format="1">
  <advance width="264"/>
  <unicode hex="003E"/>
  <outline>
    <contour>
      <point x="241" y="294" type="line"/>
      <point x="31" y="98" type="line"/>
      <point x="31" y="235" type="line"/>
      <point x="156" y="343" type="line"/>
      <point x="31" y="452" type="line"/>
      <point x="31" y="590" type="line"/>
      <point x="241" y="394" type="line"/>
    </contour>
  </outline>
</glyph>
<glyph name="question" format="1">
  <advance width="327"/>
  <unicode hex="003F"/>
  <outline>
    <contour>
      <point x="309" y="548" type="curve" smooth="yes"/>
      <point x="309" y="475"/>
      <point x="288" y="428"/>
      <point x="246" y="372" type="curve" smooth="yes"/>
      <point x="200" y="309"/>
      <point x="192" y="278"/>
      <point x="192" y="184" type="curve"/>
      <point x="94" y="184" type="line"/>
      <point x="94" y="301"/>
      <point x="106" y="349"/>
      <point x="158" y="420" type="curve" smooth="yes"/>
      <point x="190" y="464"/>
      <point x="204" y="497"/>
      <point x="204" y="542" type="curve" smooth="yes"/>
      <point x="204" y="586"/>
      <point x="192" y="610"/>
      <point x="164" y="610" type="curve" smooth="yes"/>
      <point x="133" y="610"/>
      <point x="123" y="587"/>
      <point x="109" y="525" type="curve"/>
      <point x="10" y="553" type="line"/>
      <point x="29" y="651"/>
      <point x="74" y="711"/>
      <point x="166" y="711" type="curve" smooth="yes"/>
      <point x="261" y="711"/>
      <point x="309" y="644"/>
    </contour>
    <contour>
      <point x="209" y="55" type="curve" smooth="yes"/>
      <point x="209" y="17"/>
      <point x="182" y="-11"/>
      <point x="143" y="-11" type="curve" smooth="yes"/>
      <point x="105" y="-11"/>
      <point x="78" y="17"/>
      <point x="78" y="55" type="curve" smooth="yes"/>
      <point x="78" y="93"/>
      <point x="105" y="121"/>
      <point x="143" y="121" type="curve" smooth="yes"/>
      <point x="182" y="121"/>
      <point x="209" y="93"/>
    </contour>
  </outline>
</glyph>
<glyph name="at" format="1">
  <advance width="483"/>
  <unicode hex="0040"/>
  <outline>
    <contour>
      <point x="455" y="360" type="curve" smooth="yes"/>
      <point x="455" y="200"/>
      <point x="422" y="154"/>
      <point x="364" y="154" type="curve" smooth="yes"/>
      <point x="327" y="154"/>
      <point x="305" y="170"/>
      <point x="290" y="191" type="curve"/>
      <point x="268" y="165"/>
      <point x="246" y="152"/>
      <point x="218" y="152" type="curve" smooth="yes"/>
      <point x="167" y="152"/>
      <point x="143" y="197"/>
      <point x="143" y="282" type="curve" smooth="yes"/>
      <point x="143" y="371"/>
      <point x="171" y="414"/>
      <point x="221" y="414" type="curve" smooth="yes"/>
      <point x="241" y="414"/>
      <point x="252" y="410"/>
      <point x="266" y="400" type="curve"/>
      <point x="266" y="451" type="line" smooth="yes"/>
      <point x="266" y="484"/>
      <point x="260" y="497"/>
      <point x="235" y="497" type="curve" smooth="yes"/>
      <point x="218" y="497"/>
      <point x="203" y="490"/>
      <point x="181" y="472" type="curve"/>
      <point x="154" y="520" type="line"/>
      <point x="179" y="544"/>
      <point x="213" y="561"/>
      <point x="246" y="561" type="curve" smooth="yes"/>
      <point x="300" y="561"/>
      <point x="329" y="535"/>
      <point x="329" y="461" type="curve" smooth="yes"/>
      <point x="329" y="266" type="line" smooth="yes"/>
      <point x="329" y="225"/>
      <point x="338" y="206"/>
      <point x="361" y="206" type="curve" smooth="yes"/>
      <point x="387" y="206"/>
      <point x="400" y="235"/>
      <point x="400" y="361" type="curve" smooth="yes"/>
      <point x="400" y="557"/>
      <point x="340" y="659"/>
      <point x="242" y="659" type="curve" smooth="yes"/>
      <point x="135" y="659"/>
      <point x="83" y="549"/>
      <point x="83" y="351" type="curve" smooth="yes"/>
      <point x="83" y="152"/>
      <point x="134" y="41"/>
      <point x="245" y="41" type="curve" smooth="yes"/>
      <point x="275" y="41"/>
      <point x="303" y="53"/>
      <point x="324" y="69" type="curve"/>
      <point x="349" y="27" type="line"/>
      <point x="321" y="4"/>
      <point x="283" y="-11"/>
      <point x="242" y="-11" type="curve" smooth="yes"/>
      <point x="106" y="-11"/>
      <point x="28" y="124"/>
      <point x="28" y="350" type="curve" smooth="yes"/>
      <point x="28" y="576"/>
      <point x="106" y="711"/>
      <point x="242" y="711" type="curve" smooth="yes"/>
      <point x="379" y="711"/>
      <point x="455" y="568"/>
    </contour>
    <contour>
      <point x="266" y="232" type="curve"/>
      <point x="266" y="341" type="line"/>
      <point x="257" y="348"/>
      <point x="251" y="351"/>
      <point x="237" y="351" type="curve" smooth="yes"/>
      <point x="215" y="351"/>
      <point x="207" y="334"/>
      <point x="207" y="283" type="curve" smooth="yes"/>
      <point x="207" y="235"/>
      <point x="216" y="215"/>
      <point x="236" y="215" type="curve" smooth="yes"/>
      <point x="249" y="215"/>
      <point x="258" y="223"/>
    </contour>
  </outline>
</glyph>
<glyph name="A" format="1">
  <advance width="367"/>
  <unicode hex="0041"/>
  <outline>
    <contour>
      <point x="355" y="0" type="line"/>
      <point x="243" y="0" type="line"/>
      <point x="224" y="154" type="line"/>
      <point x="142" y="154" type="line"/>
      <point x="124" y="0" type="line"/>
      <point x="13" y="0" type="line"/>
      <point x="124" y="700" type="line"/>
      <point x="244" y="700" type="line"/>
    </contour>
    <contour>
      <point x="213" y="255" type="line"/>
      <point x="197" y="383" type="line" smooth="yes"/>
      <point x="191" y="433"/>
      <point x="184" y="490"/>
      <point x="181" y="545" type="curve"/>
      <point x="179" y="490"/>
      <point x="172" y="432"/>
      <point x="166" y="382" type="curve" smooth="yes"/>
      <point x="151" y="255" type="line"/>
    </contour>
  </outline>
</glyph>
<glyph name="B" format="1">
  <advance width="375"/>
  <unicode hex="0042"/>
  <outline>
    <contour>
      <point x="349" y="205" type="curve" smooth="yes"/>
      <point x="349" y="76"/>
      <point x="293" y="0"/>
      <point x="178" y="0" type="curve" smooth="yes"/>
      <point x="45" y="0" type="line"/>
      <point x="45" y="700" type="line"/>
      <point x="180" y="700" type="line" smooth="yes"/>
      <point x="283" y="700"/>
      <point x="343" y="641"/>
      <point x="343" y="513" type="curve" smooth="yes"/>
      <point x="343" y="436"/>
      <point x="315" y="390"/>
      <point x="265" y="364" type="curve"/>
      <point x="316" y="339"/>
      <point x="349" y="295"/>
    </contour>
    <contour>
      <point x="232" y="510" type="curve" smooth="yes"/>
      <point x="232" y="581"/>
      <point x="214" y="605"/>
      <point x="176" y="605" type="curve" smooth="yes"/>
      <point x="153" y="605" type="line"/>
      <point x="153" y="409" type="line"/>
      <point x="177" y="409" type="line" smooth="yes"/>
      <point x="212" y="409"/>
      <point x="232" y="436"/>
    </contour>
    <contour>
      <point x="237" y="204" type="curve" smooth="yes"/>
      <point x="237" y="286"/>
      <point x="219" y="317"/>
      <point x="173" y="317" type="curve" smooth="yes"/>
      <point x="153" y="317" type="line"/>
      <point x="153" y="95" type="line"/>
      <point x="177" y="95" type="line" smooth="yes"/>
      <point x="221" y="95"/>
      <point x="237" y="126"/>
    </contour>
  </outline>
</glyph>
<glyph name="C" format="1">
  <advance width="371"/>
  <unicode hex="0043"/>
  <outline>
    <contour>
      <point x="346" y="199" type="line"/>
      <point x="331" y="65"/>
      <point x="299" y="-11"/>
      <point x="191" y="-11" type="curve" smooth="yes"/>
      <point x="72" y="-11"/>
      <point x="30" y="98"/>
      <point x="30" y="348" type="curve" smooth="yes"/>
      <point x="30" y="597"/>
      <point x="70" y="711"/>
      <point x="193" y="711" type="curve" smooth="yes"/>
      <point x="302" y="711"/>
      <point x="338" y="623"/>
      <point x="344" y="498" type="curve"/>
      <point x="234" y="482" type="line"/>
      <point x="227" y="575"/>
      <point x="221" y="608"/>
      <point x="192" y="608" type="curve" smooth="yes"/>
      <point x="157" y="608"/>
      <point x="145" y="569"/>
      <point x="145" y="352" type="curve" smooth="yes"/>
      <point x="145" y="134"/>
      <point x="158" y="92"/>
      <point x="195" y="92" type="curve" smooth="yes"/>
      <point x="220" y="92"/>
      <point x="228" y="115"/>
      <point x="238" y="215" type="curve"/>
    </contour>
  </outline>
</glyph>
<glyph name="D" format="1">
  <advance width="386"/>
  <unicode hex="0044"/>
  <outline>
    <contour>
      <point x="357" y="355" type="curve" smooth="yes"/>
      <point x="357" y="115"/>
      <point x="300" y="0"/>
      <point x="173" y="0" type="curve" smooth="yes"/>
      <point x="45" y="0" type="line"/>
      <point x="45" y="700" type="line"/>
      <point x="184" y="700" type="line" smooth="yes"/>
      <point x="320" y="700"/>
      <point x="357" y="572"/>
    </contour>
    <contour>
      <point x="242" y="354" type="curve" smooth="yes"/>
      <point x="242" y="559"/>
      <point x="222" y="602"/>
      <point x="175" y="602" type="curve" smooth="yes"/>
      <point x="156" y="602" type="line"/>
      <point x="156" y="97" type="line"/>
      <point x="173" y="97" type="line" smooth="yes"/>
      <point x="218" y="97"/>
      <point x="242" y="142"/>
    </contour>
  </outline>
</glyph>
<glyph name="E" format="1">
  <advance width="336"/>
  <unicode hex="0045"/>
  <outline>
    <contour>
      <point x="316" y="0" type="line"/>
      <point x="45" y="0" type="line"/>
      <point x="45" y="700" type="line"/>
      <point x="307" y="700" type="line"/>
      <point x="307" y="596" type="line"/>
      <point x="157" y="596" type="line"/>
      <point x="157" y="421" type="line"/>
      <point x="272" y="421" type="line"/>
      <point x="272" y="317" type="line"/>
      <point x="157" y="317" type="line"/>
      <point x="157" y="104" type="line"/>
      <point x="316" y="104" type="line"/>
    </contour>
  </outline>
</glyph>
<glyph name="F" format="1">
  <advance width="331"/>
  <unicode hex="0046"/>
  <outline>
    <contour>
      <point x="311" y="596" type="line"/>
      <point x="157" y="596" type="line"/>
      <point x="157" y="421" type="line"/>
      <point x="273" y="421" type="line"/>
      <point x="273" y="317" type="line"/>
      <point x="157" y="317" type="line"/>
      <point x="157" y="0" type="line"/>
      <point x="45" y="0" type="line"/>
      <point x="45" y="700" type="line"/>
      <point x="311" y="700" type="line"/>
    </contour>
  </outline>
</glyph>
<glyph name="G" format="1">
  <advance width="382"/>
  <unicode hex="0047"/>
  <outline>
    <contour>
      <point x="350" y="216" type="line" smooth="yes"/>
      <point x="350" y="93"/>
      <point x="312" y="-11"/>
      <point x="193" y="-11" type="curve" smooth="yes"/>
      <point x="66" y="-11"/>
      <point x="30" y="114"/>
      <point x="30" y="350" type="curve" smooth="yes"/>
      <point x="30" y="597"/>
      <point x="70" y="711"/>
      <point x="194" y="711" type="curve" smooth="yes"/>
      <point x="300" y="711"/>
      <point x="337" y="626"/>
      <point x="344" y="502" type="curve"/>
      <point x="234" y="484" type="line"/>
      <point x="227" y="574"/>
      <point x="221" y="608"/>
      <point x="193" y="608" type="curve" smooth="yes"/>
      <point x="156" y="608"/>
      <point x="145" y="567"/>
      <point x="145" y="350" type="curve" smooth="yes"/>
      <point x="145" y="150"/>
      <point x="154" y="91"/>
      <point x="196" y="91" type="curve" smooth="yes"/>
      <point x="229" y="91"/>
      <point x="242" y="120"/>
      <point x="242" y="197" type="curve" smooth="yes"/>
      <point x="242" y="266" type="line"/>
      <point x="192" y="266" type="line"/>
      <point x="192" y="364" type="line"/>
      <point x="350" y="364" type="line"/>
    </contour>
  </outline>
</glyph>
<glyph name="H" format="1">
  <advance width="405"/>
  <unicode hex="0048"/>
  <outline>
    <contour>
      <point x="361" y="0" type="line"/>
      <point x="249" y="0" type="line"/>
      <point x="249" y="321" type="line"/>
      <point x="157" y="321" type="line"/>
      <point x="157" y="0" type="line"/>
      <point x="45" y="0" type="line"/>
      <point x="45" y="700" type="line"/>
      <point x="157" y="700" type="line"/>
      <point x="157" y="425" type="line"/>
      <point x="249" y="425" type="line"/>
      <point x="249" y="700" type="line"/>
      <point x="361" y="700" type="line"/>
    </contour>
  </outline>
</glyph>
<glyph name="I" format="1">
  <advance width="206"/>
  <unicode hex="0049"/>
  <outline>
    <contour>
      <point x="159" y="0" type="line"/>
      <point x="47" y="0" type="line"/>
      <point x="47" y="700" type="line"/>
      <point x="159" y="700" type="line"/>
    </contour>
  </outline>
</glyph>
<glyph name="J" format="1">
  <advance width="354"/>
  <unicode hex="004A"/>
  <outline>
    <contour>
      <point x="312" y="185" type="line" smooth="yes"/>
      <point x="312" y="50"/>
      <point x="261" y="-11"/>
      <point x="161" y="-11" type="curve" smooth="yes"/>
      <point x="54" y="-11"/>
      <point x="18" y="68"/>
      <point x="11" y="175" type="curve"/>
      <point x="118" y="197" type="line"/>
      <point x="124" y="115"/>
      <point x="135" y="92"/>
      <point x="163" y="92" type="curve" smooth="yes"/>
      <point x="189" y="92"/>
      <point x="199" y="114"/>
      <point x="199" y="176" type="curve" smooth="yes"/>
      <point x="199" y="700" type="line"/>
      <point x="312" y="700" type="line"/>
    </contour>
  </outline>
</glyph>
<glyph name="K" format="1">
  <advance width="370"/>
  <unicode hex="004B"/>
  <outline>
    <contour>
      <point x="358" y="0" type="line"/>
      <point x="242" y="0" type="line"/>
      <point x="173" y="316" type="line"/>
      <point x="156" y="270" type="line"/>
      <point x="156" y="0" type="line"/>
      <point x="45" y="0" type="line"/>
      <point x="45" y="700" type="line"/>
      <point x="156" y="700" type="line"/>
      <point x="156" y="571" type="line" smooth="yes"/>
      <point x="156" y="519"/>
      <point x="155" y="469"/>
      <point x="154" y="427" type="curve"/>
      <point x="164" y="469"/>
      <point x="184" y="536"/>
      <point x="198" y="576" type="curve" smooth="yes"/>
      <point x="241" y="700" type="line"/>
      <point x="356" y="700" type="line"/>
      <point x="257" y="440" type="line"/>
    </contour>
  </outline>
</glyph>
<glyph name="L" format="1">
  <advance width="308"/>
  <unicode hex="004C"/>
  <outline>
    <contour>
      <point x="290" y="0" type="line"/>
      <point x="45" y="0" type="line"/>
      <point x="45" y="700" type="line"/>
      <point x="157" y="700" type="line"/>
      <point x="157" y="104" type="line"/>
      <point x="290" y="104" type="line"/>
    </contour>
  </outline>
</glyph>
<glyph name="M" format="1">
  <advance width="477"/>
  <unicode hex="004D"/>
  <outline>
    <contour>
      <point x="433" y="0" type="line"/>
      <point x="333" y="0" type="line"/>
      <point x="333" y="183" type="line" smooth="yes"/>
      <point x="333" y="268"/>
      <point x="336" y="349"/>
      <point x="338" y="421" type="curve"/>
      <point x="328" y="366"/>
      <point x="305" y="262"/>
      <point x="288" y="191" type="curve" smooth="yes"/>
      <point x="238" y="-21" type="line"/>
      <point x="189" y="191" type="line" smooth="yes"/>
      <point x="173" y="259"/>
      <point x="150" y="368"/>
      <point x="140" y="421" type="curve"/>
      <point x="141" y="355"/>
      <point x="145" y="265"/>
      <point x="145" y="183" type="curve" smooth="yes"/>
      <point x="145" y="0" type="line"/>
      <point x="45" y="0" type="line"/>
      <point x="45" y="700" type="line"/>
      <point x="155" y="700" type="line"/>
      <point x="201" y="487" type="line" smooth="yes"/>
      <point x="215" y="424"/>
      <point x="232" y="343"/>
      <point x="238" y="286" type="curve"/>
      <point x="244" y="343"/>
      <point x="262" y="425"/>
      <point x="276" y="488" type="curve" smooth="yes"/>
      <point x="323" y="700" type="line"/>
      <point x="433" y="700" type="line"/>
    </contour>
  </outline>
</glyph>
<glyph name="N" format="1">
  <advance width="406"/>
  <unicode hex="004E"/>
  <outline>
    <contour>
      <point x="361" y="0" type="line"/>
      <point x="276" y="0" type="line"/>
      <point x="208" y="215" type="line" smooth="yes"/>
      <point x="186" y="284"/>
      <point x="159" y="382"/>
      <point x="146" y="434" type="curve"/>
      <point x="147" y="383"/>
      <point x="149" y="288"/>
      <point x="149" y="226" type="curve" smooth="yes"/>
      <point x="149" y="0" type="line"/>
      <point x="45" y="0" type="line"/>
      <point x="45" y="700" type="line"/>
      <point x="146" y="700" type="line"/>
      <point x="201" y="529" type="line" smooth="yes"/>
      <point x="219" y="472"/>
      <point x="247" y="381"/>
      <point x="260" y="328" type="curve"/>
      <point x="259" y="376"/>
      <point x="257" y="472"/>
      <point x="257" y="524" type="curve" smooth="yes"/>
      <point x="257" y="700" type="line"/>
      <point x="361" y="700" type="line"/>
    </contour>
  </outline>
</glyph>
<glyph name="O" format="1">
  <advance width="386"/>
  <unicode hex="004F"/>
  <outline>
    <contour>
      <point x="357" y="352" type="curve" smooth="yes"/>
      <point x="357" y="108"/>
      <point x="317" y="-11"/>
      <point x="191" y="-11" type="curve" smooth="yes"/>
      <point x="68" y="-11"/>
      <point x="30" y="106"/>
      <point x="30" y="348" type="curve" smooth="yes"/>
      <point x="30" y="592"/>
      <point x="69" y="711"/>
      <point x="193" y="711" type="curve" smooth="yes"/>
      <point x="317" y="711"/>
      <point x="357" y="591"/>
    </contour>
    <contour>
      <point x="241" y="348" type="curve" smooth="yes"/>
      <point x="241" y="562"/>
      <point x="228" y="608"/>
      <point x="192" y="608" type="curve" smooth="yes"/>
      <point x="155" y="608"/>
      <point x="145" y="564"/>
      <point x="145" y="352" type="curve" smooth="yes"/>
      <point x="145" y="138"/>
      <point x="158" y="92"/>
      <point x="193" y="92" type="curve" smooth="yes"/>
      <point x="229" y="92"/>
      <point x="241" y="136"/>
    </contour>
  </outline>
</glyph>
<glyph name="P" format="1">
  <advance width="366"/>
  <unicode hex="0050"/>
  <outline>
    <contour>
      <point x="349" y="502" type="curve" smooth="yes"/>
      <point x="349" y="354"/>
      <point x="276" y="292"/>
      <point x="185" y="292" type="curve" smooth="yes"/>
      <point x="156" y="292" type="line"/>
      <point x="156" y="0" type="line"/>
      <point x="45" y="0" type="line"/>
      <point x="45" y="700" type="line"/>
      <point x="192" y="700" type="line" smooth="yes"/>
      <point x="277" y="700"/>
      <point x="349" y="651"/>
    </contour>
    <contour>
      <point x="236" y="497" type="curve" smooth="yes"/>
      <point x="236" y="576"/>
      <point x="221" y="605"/>
      <point x="182" y="605" type="curve" smooth="yes"/>
      <point x="156" y="605" type="line"/>
      <point x="156" y="388" type="line"/>
      <point x="179" y="388" type="line" smooth="yes"/>
      <point x="217" y="388"/>
      <point x="236" y="420"/>
    </contour>
  </outline>
</glyph>
<glyph name="Q" format="1">
  <advance width="386"/>
  <unicode hex="0051"/>
  <outline>
    <contour>
      <point x="358" y="34" type="line"/>
      <point x="292" y="-28" type="line"/>
      <point x="264" y="10" type="line"/>
      <point x="243" y="-4"/>
      <point x="219" y="-11"/>
      <point x="191" y="-11" type="curve" smooth="yes"/>
      <point x="68" y="-11"/>
      <point x="30" y="106"/>
      <point x="30" y="348" type="curve" smooth="yes"/>
      <point x="30" y="592"/>
      <point x="69" y="711"/>
      <point x="193" y="711" type="curve" smooth="yes"/>
      <point x="317" y="711"/>
      <point x="357" y="591"/>
      <point x="357" y="352" type="curve" smooth="yes"/>
      <point x="357" y="228"/>
      <point x="344" y="136"/>
      <point x="316" y="76" type="curve"/>
    </contour>
    <contour>
      <point x="241" y="348" type="curve" smooth="yes"/>
      <point x="241" y="562"/>
      <point x="228" y="608"/>
      <point x="192" y="608" type="curve" smooth="yes"/>
      <point x="155" y="608"/>
      <point x="145" y="564"/>
      <point x="145" y="352" type="curve" smooth="yes"/>
      <point x="145" y="138"/>
      <point x="158" y="86"/>
      <point x="193" y="86" type="curve" smooth="yes"/>
      <point x="198" y="86"/>
      <point x="202" y="86"/>
      <point x="206" y="86" type="curve"/>
      <point x="173" y="130" type="line"/>
      <point x="218" y="173" type="line"/>
      <point x="238" y="153" type="line"/>
      <point x="241" y="191"/>
      <point x="241" y="252"/>
    </contour>
  </outline>
</glyph>
<glyph name="R" format="1">
  <advance width="382"/>
  <unicode hex="0052"/>
  <outline>
    <contour>
      <point x="356" y="0" type="line"/>
      <point x="242" y="0" type="line"/>
      <point x="184" y="308" type="line"/>
      <point x="156" y="308" type="line"/>
      <point x="156" y="0" type="line"/>
      <point x="45" y="0" type="line"/>
      <point x="45" y="700" type="line"/>
      <point x="191" y="700" type="line" smooth="yes"/>
      <point x="278" y="700"/>
      <point x="349" y="653"/>
      <point x="349" y="507" type="curve" smooth="yes"/>
      <point x="349" y="426"/>
      <point x="326" y="371"/>
      <point x="287" y="340" type="curve"/>
    </contour>
    <contour>
      <point x="236" y="502" type="curve" smooth="yes"/>
      <point x="236" y="579"/>
      <point x="221" y="605"/>
      <point x="182" y="605" type="curve" smooth="yes"/>
      <point x="156" y="605" type="line"/>
      <point x="156" y="400" type="line"/>
      <point x="179" y="400" type="line" smooth="yes"/>
      <point x="217" y="400"/>
      <point x="236" y="428"/>
    </contour>
  </outline>
</glyph>
<glyph name="S" format="1">
  <advance width="349"/>
  <unicode hex="0053"/>
  <outline>
    <contour>
      <point x="326" y="164" type="curve" smooth="yes"/>
      <point x="326" y="61"/>
      <point x="272" y="-11"/>
      <point x="177" y="-11" type="curve" smooth="yes"/>
      <point x="77" y="-11"/>
      <point x="32" y="59"/>
      <point x="22" y="178" type="curve"/>
      <point x="129" y="197" type="line"/>
      <point x="137" y="112"/>
      <point x="152" y="91"/>
      <point x="177" y="91" type="curve" smooth="yes"/>
      <point x="205" y="91"/>
      <point x="217" y="109"/>
      <point x="217" y="154" type="curve" smooth="yes"/>
      <point x="217" y="221"/>
      <point x="198" y="254"/>
      <point x="133" y="322" type="curve" smooth="yes"/>
      <point x="64" y="396"/>
      <point x="27" y="460"/>
      <point x="27" y="540" type="curve" smooth="yes"/>
      <point x="27" y="638"/>
      <point x="75" y="711"/>
      <point x="171" y="711" type="curve" smooth="yes"/>
      <point x="269" y="711"/>
      <point x="308" y="645"/>
      <point x="321" y="542" type="curve"/>
      <point x="216" y="520" type="line"/>
      <point x="208" y="589"/>
      <point x="196" y="610"/>
      <point x="171" y="610" type="curve" smooth="yes"/>
      <point x="147" y="610"/>
      <point x="135" y="593"/>
      <point x="135" y="549" type="curve" smooth="yes"/>
      <point x="135" y="500"/>
      <point x="151" y="470"/>
      <point x="207" y="412" type="curve" smooth="yes"/>
      <point x="287" y="329"/>
      <point x="326" y="260"/>
    </contour>
  </outline>
</glyph>
<glyph name="T" format="1">
  <advance width="328"/>
  <unicode hex="0054"/>
  <outline>
    <contour>
      <point x="315" y="596" type="line"/>
      <point x="220" y="596" type="line"/>
      <point x="220" y="0" type="line"/>
      <point x="108" y="0" type="line"/>
      <point x="108" y="596" type="line"/>
      <point x="14" y="596" type="line"/>
      <point x="14" y="700" type="line"/>
      <point x="315" y="700" type="line"/>
    </contour>
  </outline>
</glyph>
<glyph name="U" format="1">
  <advance width="402"/>
  <unicode hex="0055"/>
  <outline>
    <contour>
      <point x="359" y="179" type="line" smooth="yes"/>
      <point x="359" y="57"/>
      <point x="309" y="-11"/>
      <point x="200" y="-11" type="curve" smooth="yes"/>
      <point x="99" y="-11"/>
      <point x="43" y="59"/>
      <point x="43" y="172" type="curve" smooth="yes"/>
      <point x="43" y="700" type="line"/>
      <point x="155" y="700" type="line"/>
      <point x="155" y="171" type="line" smooth="yes"/>
      <point x="155" y="113"/>
      <point x="171" y="92"/>
      <point x="202" y="92" type="curve" smooth="yes"/>
      <point x="235" y="92"/>
      <point x="247" y="113"/>
      <point x="247" y="170" type="curve" smooth="yes"/>
      <point x="247" y="700" type="line"/>
      <point x="359" y="700" type="line"/>
    </contour>
  </outline>
</glyph>
<glyph name="V" format="1">
  <advance width="363"/>
  <unicode hex="0056"/>
  <outline>
    <contour>
      <point x="350" y="700" type="line"/>
      <point x="237" y="0" type="line"/>
      <point x="126" y="0" type="line"/>
      <point x="13" y="700" type="line"/>
      <point x="127" y="700" type="line"/>
      <point x="168" y="358" type="line" smooth="yes"/>
      <point x="175" y="298"/>
      <point x="180" y="225"/>
      <point x="184" y="173" type="curve"/>
      <point x="187" y="225"/>
      <point x="191" y="298"/>
      <point x="198" y="359" type="curve" smooth="yes"/>
      <point x="235" y="700" type="line"/>
    </contour>
  </outline>
</glyph>
<glyph name="W" format="1">
  <advance width="482"/>
  <unicode hex="0057"/>
  <outline>
    <contour>
      <point x="469" y="700" type="line"/>
      <point x="385" y="0" type="line"/>
      <point x="291" y="0" type="line"/>
      <point x="266" y="185" type="line" smooth="yes"/>
      <point x="256" y="257"/>
      <point x="246" y="351"/>
      <point x="241" y="410" type="curve"/>
      <point x="237" y="351"/>
      <point x="227" y="258"/>
      <point x="217" y="186" type="curve" smooth="yes"/>
      <point x="191" y="0" type="line"/>
      <point x="97" y="0" type="line"/>
      <point x="14" y="700" type="line"/>
      <point x="117" y="700" type="line"/>
      <point x="140" y="471" type="line" smooth="yes"/>
      <point x="146" y="415"/>
      <point x="151" y="329"/>
      <point x="154" y="263" type="curve"/>
      <point x="159" y="329"/>
      <point x="167" y="415"/>
      <point x="173" y="471" type="curve" smooth="yes"/>
      <point x="198" y="700" type="line"/>
      <point x="284" y="700" type="line"/>
      <point x="310" y="471" type="line" smooth="yes"/>
      <point x="316" y="415"/>
      <point x="324" y="329"/>
      <point x="329" y="263" type="curve"/>
      <point x="332" y="329"/>
      <point x="338" y="415"/>
      <point x="343" y="471" type="curve" smooth="yes"/>
      <point x="365" y="700" type="line"/>
    </contour>
  </outline>
</glyph>
<glyph name="X" format="1">
  <advance width="347"/>
  <unicode hex="0058"/>
  <outline>
    <contour>
      <point x="337" y="0" type="line"/>
      <point x="223" y="0" type="line"/>
      <point x="200" y="101" type="line" smooth="yes"/>
      <point x="188" y="155"/>
      <point x="178" y="203"/>
      <point x="173" y="245" type="curve"/>
      <point x="166" y="204"/>
      <point x="156" y="156"/>
      <point x="144" y="100" type="curve" smooth="yes"/>
      <point x="122" y="0" type="line"/>
      <point x="11" y="0" type="line"/>
      <point x="116" y="359" type="line"/>
      <point x="17" y="700" type="line"/>
      <point x="131" y="700" type="line"/>
      <point x="150" y="617" type="line" smooth="yes"/>
      <point x="160" y="572"/>
      <point x="170" y="524"/>
      <point x="175" y="478" type="curve"/>
      <point x="181" y="524"/>
      <point x="191" y="572"/>
      <point x="201" y="616" type="curve" smooth="yes"/>
      <point x="220" y="700" type="line"/>
      <point x="330" y="700" type="line"/>
      <point x="231" y="364" type="line"/>
    </contour>
  </outline>
</glyph>
<glyph name="Y" format="1">
  <advance width="368"/>
  <unicode hex="0059"/>
  <outline>
    <contour>
      <point x="361" y="700" type="line"/>
      <point x="244" y="296" type="line"/>
      <point x="244" y="0" type="line"/>
      <point x="131" y="0" type="line"/>
      <point x="131" y="291" type="line"/>
      <point x="7" y="700" type="line"/>
      <point x="129" y="700" type="line"/>
      <point x="158" y="567" type="line" smooth="yes"/>
      <point x="172" y="501"/>
      <point x="183" y="443"/>
      <point x="189" y="391" type="curve"/>
      <point x="194" y="443"/>
      <point x="204" y="501"/>
      <point x="217" y="567" type="curve" smooth="yes"/>
      <point x="244" y="700" type="line"/>
    </contour>
  </outline>
</glyph>
<glyph name="Z" format="1">
  <advance width="322"/>
  <unicode hex="005A"/>
  <outline>
    <contour>
      <point x="295" y="0" type="line"/>
      <point x="26" y="0" type="line"/>
      <point x="26" y="96" type="line"/>
      <point x="143" y="471" type="line" smooth="yes"/>
      <point x="156" y="512"/>
      <point x="176" y="574"/>
      <point x="185" y="600" type="curve"/>
      <point x="167" y="600"/>
      <point x="138" y="599"/>
      <point x="109" y="599" type="curve" smooth="yes"/>
      <point x="36" y="599" type="line"/>
      <point x="36" y="700" type="line"/>
      <point x="295" y="700" type="line"/>
      <point x="295" y="604" type="line"/>
      <point x="179" y="233" type="line" smooth="yes"/>
      <point x="166" y="190"/>
      <point x="146" y="127"/>
      <point x="137" y="100" type="curve"/>
      <point x="155" y="100"/>
      <point x="180" y="101"/>
      <point x="210" y="101" type="curve" smooth="yes"/>
      <point x="295" y="101" type="line"/>
    </contour>
  </outline>
</glyph>
<glyph name="bracketleft" format="1">
  <advance width="272"/>
  <unicode hex="005B"/>
  <outline>
    <contour>
      <point x="236" y="-93" type="line"/>
      <point x="45" y="-93" type="line"/>
      <point x="45" y="700" type="line"/>
      <point x="236" y="700" type="line"/>
      <point x="236" y="605" type="line"/>
      <point x="151" y="605" type="line"/>
      <point x="151" y="2" type="line"/>
      <point x="236" y="2" type="line"/>
    </contour>
  </outline>
</glyph>
<glyph name="backslash" format="1">
  <advance width="277"/>
  <unicode hex="005C"/>
  <outline>
    <contour>
      <point x="288" y="-90" type="line"/>
      <point x="185" y="-90" type="line"/>
      <point x="-11" y="790" type="line"/>
      <point x="92" y="790" type="line"/>
    </contour>
  </outline>
</glyph>
<glyph name="bracketright" format="1">
  <advance width="272"/>
  <unicode hex="005D"/>
  <outline>
    <contour>
      <point x="228" y="-93" type="line"/>
      <point x="37" y="-93" type="line"/>
      <point x="37" y="2" type="line"/>
      <point x="121" y="2" type="line"/>
      <point x="121" y="605" type="line"/>
      <point x="37" y="605" type="line"/>
      <point x="37" y="700" type="line"/>
      <point x="228" y="700" type="line"/>
    </contour>
  </outline>
</glyph>
<glyph name="asciicircum" format="1">
  <advance width="344"/>
  <unicode hex="005E"/>
  <outline>
    <contour>
      <point x="326" y="382" type="line"/>
      <point x="216" y="382" type="line"/>
      <point x="171" y="580" type="line"/>
      <point x="128" y="382" type="line"/>
      <point x="19" y="382" type="line"/>
      <point x="125" y="700" type="line"/>
      <point x="219" y="700" type="line"/>
    </contour>
  </outline>
</glyph>
<glyph name="grave" format="1">
  <advance width="330"/>
  <unicode hex="0060"/>
  <outline>
    <contour>
      <point x="246" y="589" type="line"/>
      <point x="173" y="589" type="line"/>
      <point x="50" y="749" type="line"/>
      <point x="173" y="749" type="line"/>
    </contour>
  </outline>
</glyph>
<glyph name="a" format="1">
  <advance width="339"/>
  <unicode hex="0061"/>
  <outline>
    <contour>
      <point x="307" y="0" type="line"/>
      <point x="198" y="0" type="line"/>
      <point x="198" y="25" type="line"/>
      <point x="177" y="1"/>
      <point x="157" y="-11"/>
      <point x="125" y="-11" type="curve" smooth="yes"/>
      <point x="55" y="-11"/>
      <point x="19" y="46"/>
      <point x="19" y="162" type="curve" smooth="yes"/>
      <point x="19" y="277"/>
      <point x="58" y="338"/>
      <point x="139" y="338" type="curve" smooth="yes"/>
      <point x="165" y="338"/>
      <point x="184" y="331"/>
      <point x="198" y="322" type="curve"/>
      <point x="198" y="385" type="line" smooth="yes"/>
      <point x="198" y="423"/>
      <point x="187" y="437"/>
      <point x="158" y="437" type="curve" smooth="yes"/>
      <point x="132" y="437"/>
      <point x="110" y="423"/>
      <point x="79" y="397" type="curve"/>
      <point x="35" y="475" type="line"/>
      <point x="72" y="509"/>
      <point x="122" y="536"/>
      <point x="173" y="536" type="curve" smooth="yes"/>
      <point x="262" y="536"/>
      <point x="307" y="499"/>
      <point x="307" y="396" type="curve" smooth="yes"/>
    </contour>
    <contour>
      <point x="198" y="96" type="curve"/>
      <point x="198" y="239" type="line"/>
      <point x="187" y="246"/>
      <point x="178" y="249"/>
      <point x="160" y="249" type="curve" smooth="yes"/>
      <point x="134" y="249"/>
      <point x="122" y="226"/>
      <point x="122" y="164" type="curve" smooth="yes"/>
      <point x="122" y="106"/>
      <point x="133" y="80"/>
      <point x="162" y="80" type="curve" smooth="yes"/>
      <point x="176" y="80"/>
      <point x="189" y="85"/>
    </contour>
  </outline>
</glyph>
<glyph name="c" format="1">
  <advance width="329"/>
  <unicode hex="0063"/>
  <outline>
    <contour>
      <point x="310" y="148" type="line"/>
      <point x="292" y="44"/>
      <point x="250" y="-11"/>
      <point x="174" y="-11" type="curve" smooth="yes"/>
      <point x="83" y="-11"/>
      <point x="25" y="61"/>
      <point x="25" y="259" type="curve" smooth="yes"/>
      <point x="25" y="459"/>
      <point x="74" y="536"/>
      <point x="177" y="536" type="curve" smooth="yes"/>
      <point x="263" y="536"/>
      <point x="297" y="464"/>
      <point x="308" y="375" type="curve"/>
      <point x="210" y="348" type="line"/>
      <point x="204" y="408"/>
      <point x="197" y="437"/>
      <point x="174" y="437" type="curve" smooth="yes"/>
      <point x="138" y="437"/>
      <point x="132" y="382"/>
      <point x="132" y="261" type="curve" smooth="yes"/>
      <point x="132" y="137"/>
      <point x="138" y="88"/>
      <point x="175" y="88" type="curve" smooth="yes"/>
      <point x="195" y="88"/>
      <point x="204" y="109"/>
      <point x="215" y="178" type="curve"/>
    </contour>
  </outline>
</glyph>
<glyph name="e" format="1">
  <advance width="337"/>
  <unicode hex="0065"/>
  <outline>
    <contour>
      <point x="313" y="229" type="curve"/>
      <point x="127" y="229" type="line"/>
      <point x="129" y="119"/>
      <point x="143" y="84"/>
      <point x="173" y="84" type="curve" smooth="yes"/>
      <point x="195" y="84"/>
      <point x="203" y="101"/>
      <point x="218" y="155" type="curve"/>
      <point x="310" y="124" type="line"/>
      <point x="285" y="44"/>
      <point x="254" y="-11"/>
      <point x="169" y="-11" type="curve" smooth="yes"/>
      <point x="64" y="-11"/>
      <point x="25" y="97"/>
      <point x="25" y="259" type="curve" smooth="yes"/>
      <point x="25" y="437"/>
      <point x="65" y="536"/>
      <point x="173" y="536" type="curve" smooth="yes"/>
      <point x="268" y="536"/>
      <point x="313" y="440"/>
      <point x="313" y="261" type="curve" smooth="yes"/>
      <point x="313" y="255"/>
      <point x="313" y="238"/>
    </contour>
    <contour>
      <point x="211" y="313" type="line"/>
      <point x="209" y="401"/>
      <point x="197" y="446"/>
      <point x="170" y="446" type="curve" smooth="yes"/>
      <point x="143" y="446"/>
      <point x="131" y="412"/>
      <point x="128" y="313" type="curve"/>
    </contour>
  </outline>
</glyph>
<glyph name="f" format="1">
  <advance width="229"/>
  <unicode hex="0066"/>
  <outline>
    <contour>
      <point x="230" y="622" type="line"/>
      <point x="220" y="626"/>
      <point x="207" y="628"/>
      <point x="193" y="628" type="curve" smooth="yes"/>
      <point x="171" y="628"/>
      <point x="159" y="615"/>
      <point x="159" y="588" type="curve" smooth="yes"/>
      <point x="159" y="525" type="line"/>
      <point x="216" y="525" type="line"/>
      <point x="216" y="426" type="line"/>
      <point x="159" y="426" type="line"/>
      <point x="159" y="0" type="line"/>
      <point x="54" y="0" type="line"/>
      <point x="54" y="426" type="line"/>
      <point x="15" y="426" type="line"/>
      <point x="15" y="525" type="line"/>
      <point x="54" y="525" type="line"/>
      <point x="54" y="603" type="line" smooth="yes"/>
      <point x="54" y="686"/>
      <point x="102" y="726"/>
      <point x="161" y="726" type="curve" smooth="yes"/>
      <point x="196" y="726"/>
      <point x="211" y="725"/>
      <point x="230" y="719" type="curve"/>
    </contour>
  </outline>
</glyph>
<glyph name="i" format="1">
  <advance width="182"/>
  <unicode hex="0069"/>
  <outline>
    <contour>
      <point x="153" y="662" type="curve" smooth="yes"/>
      <point x="153" y="627"/>
      <point x="126" y="599"/>
      <point x="91" y="599" type="curve" smooth="yes"/>
      <point x="56" y="599"/>
      <point x="29" y="627"/>
      <point x="29" y="662" type="curve" smooth="yes"/>
      <point x="29" y="698"/>
      <point x="56" y="726"/>
      <point x="91" y="726" type="curve" smooth="yes"/>
      <point x="126" y="726"/>
      <point x="153" y="698"/>
    </contour>
    <contour>
      <point x="144" y="0" type="line"/>
      <point x="37" y="0" type="line"/>
      <point x="37" y="525" type="line"/>
      <point x="144" y="525" type="line"/>
    </contour>
  </outline>
</glyph>
<glyph name="j" format="1">
  <advance width="182"/>
  <unicode hex="006A"/>
  <outline>
    <contour>
      <point x="153" y="662" type="curve" smooth="yes"/>
      <point x="153" y="627"/>
      <point x="126" y="599"/>
      <point x="91" y="599" type="curve" smooth="yes"/>
      <point x="56" y="599"/>
      <point x="29" y="627"/>
      <point x="29" y="662" type="curve" smooth="yes"/>
      <point x="29" y="698"/>
      <point x="56" y="726"/>
      <point x="91" y="726" type="curve" smooth="yes"/>
      <point x="126" y="726"/>
      <point x="153" y="698"/>
    </contour>
    <contour>
      <point x="144" y="-7" type="line" smooth="yes"/>
      <point x="144" y="-145"/>
      <point x="89" y="-175"/>
      <point x="-21" y="-193" type="curve"/>
      <point x="-40" y="-108" type="line"/>
      <point x="23" y="-94"/>
      <point x="37" y="-80"/>
      <point x="37" y="-19" type="curve" smooth="yes"/>
      <point x="37" y="525" type="line"/>
      <point x="144" y="525" type="line"/>
    </contour>
  </outline>
</glyph>
<glyph name="k" format="1">
  <advance width="339"/>
  <unicode hex="006B"/>
  <outline>
    <contour>
      <point x="330" y="0" type="line"/>
      <point x="220" y="0" type="line"/>
      <point x="166" y="232" type="line"/>
      <point x="141" y="180" type="line"/>
      <point x="141" y="0" type="line"/>
      <point x="35" y="0" type="line"/>
      <point x="35" y="682" type="line"/>
      <point x="141" y="729" type="line"/>
      <point x="141" y="473" type="line" smooth="yes"/>
      <point x="141" y="425"/>
      <point x="140" y="366"/>
      <point x="138" y="327" type="curve"/>
      <point x="149" y="362"/>
      <point x="178" y="436"/>
      <point x="194" y="474" type="curve" smooth="yes"/>
      <point x="216" y="525" type="line"/>
      <point x="325" y="525" type="line"/>
      <point x="239" y="348" type="line"/>
    </contour>
  </outline>
</glyph>
<glyph name="m" format="1">
  <advance width="518"/>
  <unicode hex="006D"/>
  <outline>
    <contour>
      <point x="486" y="0" type="line"/>
      <point x="380" y="0" type="line"/>
      <point x="380" y="390" type="line" smooth="yes"/>
      <point x="380" y="422"/>
      <point x="375" y="438"/>
      <point x="355" y="438" type="curve" smooth="yes"/>
      <point x="339" y="438"/>
      <point x="326" y="431"/>
      <point x="313" y="421" type="curve"/>
      <point x="313" y="0" type="line"/>
      <point x="207" y="0" type="line"/>
      <point x="207" y="390" type="line" smooth="yes"/>
      <point x="207" y="422"/>
      <point x="202" y="438"/>
      <point x="183" y="438" type="curve" smooth="yes"/>
      <point x="166" y="438"/>
      <point x="154" y="431"/>
      <point x="141" y="421" type="curve"/>
      <point x="141" y="0" type="line"/>
      <point x="35" y="0" type="line"/>
      <point x="35" y="525" type="line"/>
      <point x="141" y="525" type="line"/>
      <point x="141" y="499" type="line"/>
      <point x="160" y="519"/>
      <point x="184" y="536"/>
      <point x="222" y="536" type="curve" smooth="yes"/>
      <point x="264" y="536"/>
      <point x="284" y="525"/>
      <point x="303" y="496" type="curve"/>
      <point x="331" y="522"/>
      <point x="360" y="536"/>
      <point x="395" y="536" type="curve" smooth="yes"/>
      <point x="457" y="536"/>
      <point x="486" y="502"/>
      <point x="486" y="407" type="curve" smooth="yes"/>
    </contour>
  </outline>
</glyph>
<glyph name="n" format="1">
  <advance width="349"/>
  <unicode hex="006E"/>
  <outline>
    <contour>
      <point x="316" y="0" type="line"/>
      <point x="210" y="0" type="line"/>
      <point x="210" y="388" type="line" smooth="yes"/>
      <point x="210" y="421"/>
      <point x="204" y="438"/>
      <point x="184" y="438" type="curve" smooth="yes"/>
      <point x="167" y="438"/>
      <point x="155" y="432"/>
      <point x="141" y="421" type="curve"/>
      <point x="141" y="0" type="line"/>
      <point x="35" y="0" type="line"/>
      <point x="35" y="525" type="line"/>
      <point x="141" y="525" type="line"/>
      <point x="141" y="499" type="line"/>
      <point x="162" y="520"/>
      <point x="185" y="536"/>
      <point x="224" y="536" type="curve" smooth="yes"/>
      <point x="287" y="536"/>
      <point x="316" y="502"/>
      <point x="316" y="404" type="curve" smooth="yes"/>
    </contour>
  </outline>
</glyph>
<glyph name="o" format="1">
  <advance width="351"/>
  <unicode hex="006F"/>
  <outline>
    <contour>
      <point x="326" y="264" type="curve" smooth="yes"/>
      <point x="326" y="98"/>
      <point x="292" y="-11"/>
      <point x="174" y="-11" type="curve" smooth="yes"/>
      <point x="64" y="-11"/>
      <point x="25" y="95"/>
      <point x="25" y="260" type="curve" smooth="yes"/>
      <point x="25" y="421"/>
      <point x="54" y="536"/>
      <point x="178" y="536" type="curve" smooth="yes"/>
      <point x="291" y="536"/>
      <point x="326" y="427"/>
    </contour>
    <contour>
      <point x="220" y="261" type="curve" smooth="yes"/>
      <point x="220" y="378"/>
      <point x="213" y="439"/>
      <point x="176" y="439" type="curve" smooth="yes"/>
      <point x="137" y="439"/>
      <point x="132" y="375"/>
      <point x="132" y="264" type="curve" smooth="yes"/>
      <point x="132" y="150"/>
      <point x="135" y="86"/>
      <point x="177" y="86" type="curve" smooth="yes"/>
      <point x="215" y="86"/>
      <point x="220" y="150"/>
    </contour>
  </outline>
</glyph>
<glyph name="p" format="1">
  <advance width="352"/>
  <unicode hex="0070"/>
  <outline>
    <contour>
      <point x="325" y="266" type="curve" smooth="yes"/>
      <point x="325" y="79"/>
      <point x="290" y="-11"/>
      <point x="212" y="-11" type="curve" smooth="yes"/>
      <point x="185" y="-11"/>
      <point x="160" y="3"/>
      <point x="141" y="23" type="curve"/>
      <point x="141" y="-145" type="line"/>
      <point x="35" y="-193" type="line"/>
      <point x="35" y="525" type="line"/>
      <point x="141" y="525" type="line"/>
      <point x="141" y="500" type="line"/>
      <point x="157" y="520"/>
      <point x="181" y="536"/>
      <point x="213" y="536" type="curve" smooth="yes"/>
      <point x="301" y="536"/>
      <point x="325" y="435"/>
    </contour>
    <contour>
      <point x="218" y="262" type="curve" smooth="yes"/>
      <point x="218" y="397"/>
      <point x="209" y="439"/>
      <point x="179" y="439" type="curve" smooth="yes"/>
      <point x="164" y="439"/>
      <point x="151" y="431"/>
      <point x="141" y="421" type="curve"/>
      <point x="141" y="106" type="line"/>
      <point x="151" y="96"/>
      <point x="163" y="88"/>
      <point x="180" y="88" type="curve" smooth="yes"/>
      <point x="208" y="88"/>
      <point x="218" y="121"/>
    </contour>
  </outline>
</glyph>
<glyph name="q" format="1">
  <advance width="352"/>
  <unicode hex="0071"/>
  <outline>
    <contour>
      <point x="317" y="-146" type="line"/>
      <point x="211" y="-193" type="line"/>
      <point x="211" y="25" type="line"/>
      <point x="195" y="5"/>
      <point x="171" y="-11"/>
      <point x="139" y="-11" type="curve" smooth="yes"/>
      <point x="51" y="-11"/>
      <point x="27" y="90"/>
      <point x="27" y="259" type="curve" smooth="yes"/>
      <point x="27" y="446"/>
      <point x="61" y="536"/>
      <point x="140" y="536" type="curve" smooth="yes"/>
      <point x="167" y="536"/>
      <point x="192" y="522"/>
      <point x="211" y="502" type="curve"/>
      <point x="211" y="525" type="line"/>
      <point x="317" y="525" type="line"/>
    </contour>
    <contour>
      <point x="211" y="104" type="curve"/>
      <point x="211" y="419" type="line"/>
      <point x="201" y="429"/>
      <point x="189" y="437"/>
      <point x="172" y="437" type="curve" smooth="yes"/>
      <point x="143" y="437"/>
      <point x="134" y="404"/>
      <point x="134" y="263" type="curve" smooth="yes"/>
      <point x="134" y="128"/>
      <point x="142" y="86"/>
      <point x="174" y="86" type="curve" smooth="yes"/>
      <point x="188" y="86"/>
      <point x="201" y="94"/>
    </contour>
  </outline>
</glyph>
<glyph name="r" format="1">
  <advance width="263"/>
  <unicode hex="0072"/>
  <outline>
    <contour>
      <point x="254" y="526" type="curve"/>
      <point x="240" y="411" type="line"/>
      <point x="224" y="424"/>
      <point x="210" y="430"/>
      <point x="187" y="430" type="curve" smooth="yes"/>
      <point x="168" y="430"/>
      <point x="153" y="423"/>
      <point x="141" y="410" type="curve"/>
      <point x="141" y="0" type="line"/>
      <point x="35" y="0" type="line"/>
      <point x="35" y="525" type="line"/>
      <point x="141" y="525" type="line"/>
      <point x="141" y="499" type="line"/>
      <point x="159" y="521"/>
      <point x="181" y="536"/>
      <point x="209" y="536" type="curve" smooth="yes"/>
      <point x="234" y="536"/>
      <point x="244" y="532"/>
    </contour>
  </outline>
</glyph>
<glyph name="s" format="1">
  <advance width="314"/>
  <unicode hex="0073"/>
  <outline>
    <contour>
      <point x="293" y="130" type="curve" smooth="yes"/>
      <point x="293" y="40"/>
      <point x="234" y="-11"/>
      <point x="152" y="-11" type="curve" smooth="yes"/>
      <point x="72" y="-11"/>
      <point x="37" y="43"/>
      <point x="19" y="120" type="curve"/>
      <point x="110" y="154" type="line"/>
      <point x="122" y="105"/>
      <point x="135" y="79"/>
      <point x="157" y="79" type="curve" smooth="yes"/>
      <point x="180" y="79"/>
      <point x="194" y="95"/>
      <point x="194" y="121" type="curve" smooth="yes"/>
      <point x="194" y="164"/>
      <point x="181" y="185"/>
      <point x="132" y="221" type="curve" smooth="yes"/>
      <point x="49" y="281"/>
      <point x="24" y="329"/>
      <point x="24" y="397" type="curve" smooth="yes"/>
      <point x="24" y="479"/>
      <point x="72" y="536"/>
      <point x="156" y="536" type="curve" smooth="yes"/>
      <point x="231" y="536"/>
      <point x="265" y="491"/>
      <point x="286" y="418" type="curve"/>
      <point x="196" y="384" type="line"/>
      <point x="185" y="422"/>
      <point x="173" y="446"/>
      <point x="153" y="446" type="curve" smooth="yes"/>
      <point x="133" y="446"/>
      <point x="121" y="431"/>
      <point x="121" y="408" type="curve" smooth="yes"/>
      <point x="121" y="370"/>
      <point x="136" y="353"/>
      <point x="186" y="316" type="curve" smooth="yes"/>
      <point x="273" y="252"/>
      <point x="293" y="203"/>
    </contour>
  </outline>
</glyph>
<glyph name="t" format="1">
  <advance width="251"/>
  <unicode hex="0074"/>
  <outline>
    <contour>
      <point x="232" y="105" type="curve"/>
      <point x="222" y="6" type="line"/>
      <point x="200" y="-5"/>
      <point x="179" y="-11"/>
      <point x="150" y="-11" type="curve" smooth="yes"/>
      <point x="84" y="-11"/>
      <point x="52" y="28"/>
      <point x="52" y="107" type="curve" smooth="yes"/>
      <point x="52" y="426" type="line"/>
      <point x="13" y="426" type="line"/>
      <point x="13" y="525" type="line"/>
      <point x="52" y="525" type="line"/>
      <point x="52" y="682" type="line"/>
      <point x="158" y="729" type="line"/>
      <point x="158" y="525" type="line"/>
      <point x="227" y="525" type="line"/>
      <point x="227" y="426" type="line"/>
      <point x="158" y="426" type="line"/>
      <point x="158" y="132" type="line" smooth="yes"/>
      <point x="158" y="104"/>
      <point x="167" y="90"/>
      <point x="185" y="90" type="curve" smooth="yes"/>
      <point x="204" y="90"/>
      <point x="215" y="95"/>
    </contour>
  </outline>
</glyph>
<glyph name="u" format="1">
  <advance width="349"/>
  <unicode hex="0075"/>
  <outline>
    <contour>
      <point x="314" y="0" type="line"/>
      <point x="208" y="0" type="line"/>
      <point x="208" y="26" type="line"/>
      <point x="187" y="5"/>
      <point x="164" y="-11"/>
      <point x="125" y="-11" type="curve" smooth="yes"/>
      <point x="62" y="-11"/>
      <point x="32" y="23"/>
      <point x="32" y="121" type="curve" smooth="yes"/>
      <point x="32" y="525" type="line"/>
      <point x="138" y="525" type="line"/>
      <point x="138" y="137" type="line" smooth="yes"/>
      <point x="138" y="104"/>
      <point x="145" y="87"/>
      <point x="165" y="87" type="curve" smooth="yes"/>
      <point x="182" y="87"/>
      <point x="194" y="93"/>
      <point x="208" y="104" type="curve"/>
      <point x="208" y="525" type="line"/>
      <point x="314" y="525" type="line"/>
    </contour>
  </outline>
</glyph>
<glyph name="v" format="1">
  <advance width="332"/>
  <unicode hex="0076"/>
  <outline>
    <contour>
      <point x="322" y="525" type="line"/>
      <point x="220" y="0" type="line"/>
      <point x="112" y="0" type="line"/>
      <point x="10" y="525" type="line"/>
      <point x="120" y="525" type="line"/>
      <point x="140" y="384" type="line" smooth="yes"/>
      <point x="150" y="313"/>
      <point x="163" y="202"/>
      <point x="167" y="129" type="curve"/>
      <point x="171" y="202"/>
      <point x="183" y="313"/>
      <point x="193" y="384" type="curve" smooth="yes"/>
      <point x="213" y="525" type="line"/>
    </contour>
  </outline>
</glyph>
<glyph name="w" format="1">
  <advance width="462"/>
  <unicode hex="0077"/>
  <outline>
    <contour>
      <point x="448" y="525" type="line"/>
      <point x="382" y="0" type="line"/>
      <point x="276" y="0" type="line"/>
      <point x="260" y="114" type="line" smooth="yes"/>
      <point x="248" y="201"/>
      <point x="237" y="301"/>
      <point x="231" y="371" type="curve"/>
      <point x="224" y="301"/>
      <point x="213" y="200"/>
      <point x="201" y="114" type="curve" smooth="yes"/>
      <point x="185" y="0" type="line"/>
      <point x="81" y="0" type="line"/>
      <point x="14" y="525" type="line"/>
      <point x="113" y="525" type="line"/>
      <point x="120" y="433" type="line" smooth="yes"/>
      <point x="125" y="370"/>
      <point x="136" y="228"/>
      <point x="138" y="166" type="curve"/>
      <point x="142" y="228"/>
      <point x="159" y="371"/>
      <point x="168" y="432" type="curve" smooth="yes"/>
      <point x="181" y="525" type="line"/>
      <point x="283" y="525" type="line"/>
      <point x="296" y="432" type="line" smooth="yes"/>
      <point x="305" y="371"/>
      <point x="321" y="228"/>
      <point x="325" y="166" type="curve"/>
      <point x="328" y="228"/>
      <point x="339" y="372"/>
      <point x="344" y="433" type="curve" smooth="yes"/>
      <point x="351" y="525" type="line"/>
    </contour>
  </outline>
</glyph>
<glyph name="x" format="1">
  <advance width="330"/>
  <unicode hex="0078"/>
  <outline>
    <contour>
      <point x="319" y="0" type="line"/>
      <point x="209" y="0" type="line"/>
      <point x="196" y="52" type="line" smooth="yes"/>
      <point x="186" y="91"/>
      <point x="173" y="150"/>
      <point x="165" y="192" type="curve"/>
      <point x="157" y="150"/>
      <point x="144" y="90"/>
      <point x="134" y="52" type="curve" smooth="yes"/>
      <point x="121" y="0" type="line"/>
      <point x="10" y="0" type="line"/>
      <point x="106" y="271" type="line"/>
      <point x="19" y="525" type="line"/>
      <point x="128" y="525" type="line"/>
      <point x="134" y="503" type="line" smooth="yes"/>
      <point x="145" y="464"/>
      <point x="157" y="406"/>
      <point x="165" y="363" type="curve"/>
      <point x="172" y="406"/>
      <point x="185" y="464"/>
      <point x="196" y="503" type="curve" smooth="yes"/>
      <point x="202" y="525" type="line"/>
      <point x="311" y="525" type="line"/>
      <point x="223" y="274" type="line"/>
    </contour>
  </outline>
</glyph>
<glyph name="y" format="1">
  <advance width="338"/>
  <unicode hex="0079"/>
  <outline>
    <contour>
      <point x="328" y="525" type="line"/>
      <point x="179" y="-185" type="line"/>
      <point x="74" y="-185" type="line"/>
      <point x="119" y="-7" type="line"/>
      <point x="10" y="525" type="line"/>
      <point x="120" y="525" type="line"/>
      <point x="140" y="384" type="line" smooth="yes"/>
      <point x="150" y="311"/>
      <point x="163" y="201"/>
      <point x="168" y="129" type="curve"/>
      <point x="172" y="201"/>
      <point x="187" y="312"/>
      <point x="198" y="384" type="curve" smooth="yes"/>
      <point x="219" y="525" type="line"/>
    </contour>
  </outline>
</glyph>
<glyph name="z" format="1">
  <advance width="301"/>
  <unicode hex="007A"/>
  <outline>
    <contour>
      <point x="274" y="0" type="line"/>
      <point x="20" y="0" type="line"/>
      <point x="20" y="88" type="line"/>
      <point x="123" y="334" type="line" smooth="yes"/>
      <point x="137" y="367"/>
      <point x="155" y="408"/>
      <point x="166" y="431" type="curve"/>
      <point x="146" y="430"/>
      <point x="123" y="430"/>
      <point x="95" y="430" type="curve" smooth="yes"/>
      <point x="34" y="430" type="line"/>
      <point x="34" y="525" type="line"/>
      <point x="274" y="525" type="line"/>
      <point x="274" y="437" type="line"/>
      <point x="172" y="191" type="line" smooth="yes"/>
      <point x="159" y="159"/>
      <point x="140" y="117"/>
      <point x="128" y="94" type="curve"/>
      <point x="148" y="95"/>
      <point x="171" y="95"/>
      <point x="199" y="95" type="curve" smooth="yes"/>
      <point x="274" y="95" type="line"/>
    </contour>
  </outline>
</glyph>
<glyph name="braceleft" format="1">
  <advance width="287"/>
  <unicode hex="007B"/>
  <outline>
    <contour>
      <point x="266" y="-110" type="line"/>
      <point x="124" y="-108"/>
      <point x="84" y="-46"/>
      <point x="84" y="85" type="curve" smooth="yes"/>
      <point x="84" y="172" type="line" smooth="yes"/>
      <point x="84" y="234"/>
      <point x="63" y="253"/>
      <point x="37" y="253" type="curve" smooth="yes"/>
      <point x="11" y="253" type="line"/>
      <point x="11" y="348" type="line"/>
      <point x="37" y="348" type="line" smooth="yes"/>
      <point x="63" y="348"/>
      <point x="84" y="367"/>
      <point x="84" y="429" type="curve" smooth="yes"/>
      <point x="84" y="516" type="line" smooth="yes"/>
      <point x="84" y="647"/>
      <point x="124" y="709"/>
      <point x="266" y="711" type="curve"/>
      <point x="266" y="622" type="line"/>
      <point x="203" y="613"/>
      <point x="190" y="595"/>
      <point x="190" y="525" type="curve" smooth="yes"/>
      <point x="190" y="457" type="line" smooth="yes"/>
      <point x="190" y="363"/>
      <point x="176" y="322"/>
      <point x="114" y="301" type="curve"/>
      <point x="176" y="279"/>
      <point x="190" y="238"/>
      <point x="190" y="144" type="curve" smooth="yes"/>
      <point x="190" y="76" type="line" smooth="yes"/>
      <point x="190" y="6"/>
      <point x="203" y="-12"/>
      <point x="266" y="-21" type="curve"/>
    </contour>
  </outline>
</glyph>
<glyph name="bar" format="1">
  <advance width="208"/>
  <unicode hex="007C"/>
  <outline>
    <contour>
      <point x="156" y="-185" type="line"/>
      <point x="52" y="-185" type="line"/>
      <point x="52" y="800" type="line"/>
      <point x="156" y="800" type="line"/>
    </contour>
  </outline>
</glyph>
<glyph name="braceright" format="1">
  <advance width="287"/>
  <unicode hex="007D"/>
  <outline>
    <contour>
      <point x="276" y="253" type="line"/>
      <point x="250" y="253" type="line" smooth="yes"/>
      <point x="223" y="253"/>
      <point x="203" y="234"/>
      <point x="203" y="172" type="curve" smooth="yes"/>
      <point x="203" y="85" type="line" smooth="yes"/>
      <point x="203" y="-46"/>
      <point x="163" y="-108"/>
      <point x="21" y="-110" type="curve"/>
      <point x="21" y="-21" type="line"/>
      <point x="84" y="-12"/>
      <point x="97" y="6"/>
      <point x="97" y="76" type="curve" smooth="yes"/>
      <point x="97" y="144" type="line" smooth="yes"/>
      <point x="97" y="238"/>
      <point x="111" y="279"/>
      <point x="173" y="300" type="curve"/>
      <point x="111" y="322"/>
      <point x="97" y="363"/>
      <point x="97" y="457" type="curve" smooth="yes"/>
      <point x="97" y="525" type="line" smooth="yes"/>
      <point x="97" y="595"/>
      <point x="84" y="613"/>
      <point x="21" y="622" type="curve"/>
      <point x="21" y="711" type="line"/>
      <point x="163" y="709"/>
      <point x="203" y="647"/>
      <point x="203" y="516" type="curve" smooth="yes"/>
      <point x="203" y="429" type="line" smooth="yes"/>
      <point x="203" y="367"/>
      <point x="223" y="348"/>
      <point x="250" y="348" type="curve" smooth="yes"/>
      <point x="276" y="348" type="line"/>
    </contour>
  </outline>
</glyph>
<glyph name="asciitilde" format="1">
  <advance width="352"/>
  <unicode hex="007E"/>
  <outline>
    <contour>
      <point x="335" y="434" type="line"/>
      <point x="316" y="341"/>
      <point x="285" y="299"/>
      <point x="232" y="299" type="curve" smooth="yes"/>
      <point x="196" y="299"/>
      <point x="178" y="313"/>
      <point x="152" y="342" type="curve" smooth="yes"/>
      <point x="140" y="355"/>
      <point x="134" y="361"/>
      <point x="125" y="361" type="curve" smooth="yes"/>
      <point x="113" y="361"/>
      <point x="109" y="356"/>
      <point x="94" y="297" type="curve"/>
      <point x="17" y="315" type="line"/>
      <point x="36" y="408"/>
      <point x="67" y="449"/>
      <point x="120" y="449" type="curve" smooth="yes"/>
      <point x="157" y="449"/>
      <point x="173" y="435"/>
      <point x="200" y="407" type="curve" smooth="yes"/>
      <point x="212" y="394"/>
      <point x="219" y="388"/>
      <point x="227" y="388" type="curve" smooth="yes"/>
      <point x="239" y="388"/>
      <point x="244" y="393"/>
      <point x="258" y="451" type="curve"/>
    </contour>
  </outline>
</glyph>
<glyph name="exclamdown" format="1">
  <advance width="202"/>
  <unicode hex="00A1"/>
  <outline>
    <contour>
      <point x="167" y="645" type="curve" smooth="yes"/>
      <point x="167" y="607"/>
      <point x="140" y="579"/>
      <point x="101" y="579" type="curve" smooth="yes"/>
      <point x="62" y="579"/>
      <point x="36" y="607"/>
      <point x="36" y="645" type="curve" smooth="yes"/>
      <point x="36" y="683"/>
      <point x="62" y="711"/>
      <point x="101" y="711" type="curve" smooth="yes"/>
      <point x="140" y="711"/>
      <point x="167" y="683"/>
    </contour>
    <contour>
      <point x="155" y="0" type="line"/>
      <point x="47" y="0" type="line"/>
      <point x="47" y="336" type="line"/>
      <point x="65" y="516" type="line"/>
      <point x="137" y="516" type="line"/>
      <point x="155" y="336" type="line"/>
    </contour>
  </outline>
</glyph>
<glyph name="cent" format="1">
  <advance width="329"/>
  <unicode hex="00A2"/>
  <outline>
    <contour>
      <point x="310" y="241" type="line"/>
      <point x="297" y="163"/>
      <point x="270" y="113"/>
      <point x="225" y="92" type="curve"/>
      <point x="225" y="-11" type="line"/>
      <point x="119" y="-11" type="line"/>
      <point x="119" y="93" type="line"/>
      <point x="60" y="120"/>
      <point x="25" y="198"/>
      <point x="25" y="352" type="curve" smooth="yes"/>
      <point x="25" y="510"/>
      <point x="56" y="591"/>
      <point x="119" y="618" type="curve"/>
      <point x="119" y="714" type="line"/>
      <point x="225" y="714" type="line"/>
      <point x="225" y="620" type="line"/>
      <point x="276" y="598"/>
      <point x="299" y="538"/>
      <point x="308" y="468" type="curve"/>
      <point x="210" y="441" type="line"/>
      <point x="204" y="501"/>
      <point x="197" y="530"/>
      <point x="174" y="530" type="curve" smooth="yes"/>
      <point x="138" y="530"/>
      <point x="132" y="475"/>
      <point x="132" y="354" type="curve" smooth="yes"/>
      <point x="132" y="230"/>
      <point x="138" y="181"/>
      <point x="175" y="181" type="curve" smooth="yes"/>
      <point x="195" y="181"/>
      <point x="204" y="202"/>
      <point x="215" y="271" type="curve"/>
    </contour>
  </outline>
</glyph>
<glyph name="sterling" format="1">
  <advance width="361"/>
  <unicode hex="00A3"/>
  <outline>
    <contour>
      <point x="336" y="534" type="curve"/>
      <point x="232" y="517" type="line"/>
      <point x="223" y="592"/>
      <point x="211" y="615"/>
      <point x="181" y="615" type="curve" smooth="yes"/>
      <point x="152" y="615"/>
      <point x="145" y="588"/>
      <point x="145" y="547" type="curve" smooth="yes"/>
      <point x="145" y="516"/>
      <point x="152" y="479"/>
      <point x="161" y="454" type="curve" smooth="yes"/>
      <point x="170" y="429"/>
      <point x="179" y="401"/>
      <point x="185" y="370" type="curve"/>
      <point x="267" y="370" type="line"/>
      <point x="267" y="280" type="line"/>
      <point x="188" y="280" type="line"/>
      <point x="185" y="202"/>
      <point x="166" y="153"/>
      <point x="139" y="100" type="curve"/>
      <point x="331" y="100" type="line"/>
      <point x="331" y="0" type="line"/>
      <point x="31" y="0" type="line"/>
      <point x="31" y="99" type="line"/>
      <point x="64" y="157"/>
      <point x="83" y="202"/>
      <point x="87" y="280" type="curve"/>
      <point x="37" y="280" type="line"/>
      <point x="37" y="370" type="line"/>
      <point x="79" y="370" type="line"/>
      <point x="75" y="389"/>
      <point x="68" y="409"/>
      <point x="60" y="430" type="curve" smooth="yes"/>
      <point x="48" y="460"/>
      <point x="37" y="497"/>
      <point x="37" y="541" type="curve" smooth="yes"/>
      <point x="37" y="635"/>
      <point x="83" y="711"/>
      <point x="184" y="711" type="curve" smooth="yes"/>
      <point x="275" y="711"/>
      <point x="320" y="651"/>
    </contour>
  </outline>
</glyph>
<glyph name="yen" format="1">
  <advance width="363"/>
  <unicode hex="00A5"/>
  <outline>
    <contour>
      <point x="356" y="700" type="line"/>
      <point x="238" y="286" type="line"/>
      <point x="238" y="215" type="line"/>
      <point x="321" y="215" type="line"/>
      <point x="321" y="117" type="line"/>
      <point x="238" y="117" type="line"/>
      <point x="238" y="0" type="line"/>
      <point x="131" y="0" type="line"/>
      <point x="131" y="117" type="line"/>
      <point x="48" y="117" type="line"/>
      <point x="48" y="215" type="line"/>
      <point x="131" y="215" type="line"/>
      <point x="131" y="281" type="line"/>
      <point x="7" y="700" type="line"/>
      <point x="129" y="700" type="line"/>
      <point x="158" y="567" type="line" smooth="yes"/>
      <point x="170" y="510"/>
      <point x="182" y="443"/>
      <point x="186" y="391" type="curve"/>
      <point x="189" y="443"/>
      <point x="200" y="512"/>
      <point x="211" y="567" type="curve" smooth="yes"/>
      <point x="238" y="700" type="line"/>
    </contour>
  </outline>
</glyph>
<glyph name="section" format="1">
  <advance width="385"/>
  <unicode hex="00A7"/>
  <outline>
    <contour>
      <point x="355" y="268" type="curve" smooth="yes"/>
      <point x="355" y="205"/>
      <point x="331" y="154"/>
      <point x="296" y="115" type="curve"/>
      <point x="320" y="85"/>
      <point x="335" y="47"/>
      <point x="335" y="-3" type="curve" smooth="yes"/>
      <point x="335" y="-96"/>
      <point x="286" y="-164"/>
      <point x="191" y="-164" type="curve" smooth="yes"/>
      <point x="103" y="-164"/>
      <point x="57" y="-108"/>
      <point x="41" y="8" type="curve"/>
      <point x="145" y="24" type="line"/>
      <point x="156" y="-42"/>
      <point x="166" y="-68"/>
      <point x="194" y="-68" type="curve" smooth="yes"/>
      <point x="220" y="-68"/>
      <point x="231" y="-46"/>
      <point x="231" y="-9" type="curve" smooth="yes"/>
      <point x="231" y="32"/>
      <point x="216" y="60"/>
      <point x="167" y="91" type="curve" smooth="yes"/>
      <point x="92" y="138"/>
      <point x="31" y="176"/>
      <point x="31" y="279" type="curve" smooth="yes"/>
      <point x="31" y="342"/>
      <point x="55" y="393"/>
      <point x="89" y="432" type="curve"/>
      <point x="66" y="462"/>
      <point x="51" y="500"/>
      <point x="51" y="550" type="curve" smooth="yes"/>
      <point x="51" y="643"/>
      <point x="99" y="711"/>
      <point x="195" y="711" type="curve" smooth="yes"/>
      <point x="282" y="711"/>
      <point x="328" y="655"/>
      <point x="345" y="539" type="curve"/>
      <point x="241" y="523" type="line"/>
      <point x="229" y="589"/>
      <point x="220" y="615"/>
      <point x="192" y="615" type="curve" smooth="yes"/>
      <point x="165" y="615"/>
      <point x="154" y="593"/>
      <point x="154" y="556" type="curve" smooth="yes"/>
      <point x="154" y="515"/>
      <point x="169" y="487"/>
      <point x="219" y="456" type="curve" smooth="yes"/>
      <point x="294" y="409"/>
      <point x="355" y="371"/>
    </contour>
    <contour>
      <point x="251" y="256" type="curve" smooth="yes"/>
      <point x="251" y="309"/>
      <point x="223" y="336"/>
      <point x="173" y="365" type="curve" smooth="yes"/>
      <point x="167" y="369"/>
      <point x="162" y="372"/>
      <point x="157" y="374" type="curve"/>
      <point x="142" y="351"/>
      <point x="134" y="324"/>
      <point x="134" y="291" type="curve" smooth="yes"/>
      <point x="134" y="238"/>
      <point x="163" y="211"/>
      <point x="213" y="182" type="curve" smooth="yes"/>
      <point x="219" y="178"/>
      <point x="223" y="175"/>
      <point x="228" y="172" type="curve"/>
      <point x="243" y="196"/>
      <point x="251" y="223"/>
    </contour>
  </outline>
</glyph>
<glyph name="dieresis" format="1">
  <advance width="330"/>
  <unicode hex="00A8"/>
  <outline>
    <contour>
      <point x="305" y="651" type="curve" smooth="yes"/>
      <point x="305" y="617"/>
      <point x="277" y="589"/>
      <point x="244" y="589" type="curve" smooth="yes"/>
      <point x="210" y="589"/>
      <point x="182" y="617"/>
      <point x="182" y="651" type="curve" smooth="yes"/>
      <point x="182" y="684"/>
      <point x="210" y="712"/>
      <point x="244" y="712" type="curve" smooth="yes"/>
      <point x="277" y="712"/>
      <point x="305" y="684"/>
    </contour>
    <contour>
      <point x="148" y="651" type="curve" smooth="yes"/>
      <point x="148" y="617"/>
      <point x="120" y="589"/>
      <point x="87" y="589" type="curve" smooth="yes"/>
      <point x="52" y="589"/>
      <point x="25" y="617"/>
      <point x="25" y="651" type="curve" smooth="yes"/>
      <point x="25" y="684"/>
      <point x="52" y="712"/>
      <point x="87" y="712" type="curve" smooth="yes"/>
      <point x="120" y="712"/>
      <point x="148" y="684"/>
    </contour>
  </outline>
</glyph>
<glyph name="copyright" format="1">
  <advance width="483"/>
  <unicode hex="00A9"/>
  <outline>
    <contour>
      <point x="455" y="350" type="curve" smooth="yes"/>
      <point x="455" y="135"/>
      <point x="382" y="-11"/>
      <point x="241" y="-11" type="curve" smooth="yes"/>
      <point x="100" y="-11"/>
      <point x="28" y="135"/>
      <point x="28" y="350" type="curve" smooth="yes"/>
      <point x="28" y="565"/>
      <point x="100" y="711"/>
      <point x="241" y="711" type="curve" smooth="yes"/>
      <point x="382" y="711"/>
      <point x="455" y="565"/>
    </contour>
    <contour>
      <point x="400" y="350" type="curve" smooth="yes"/>
      <point x="400" y="531"/>
      <point x="354" y="659"/>
      <point x="241" y="659" type="curve" smooth="yes"/>
      <point x="128" y="659"/>
      <point x="83" y="531"/>
      <point x="83" y="350" type="curve" smooth="yes"/>
      <point x="83" y="169"/>
      <point x="128" y="41"/>
      <point x="241" y="41" type="curve" smooth="yes"/>
      <point x="354" y="41"/>
      <point x="400" y="169"/>
    </contour>
    <contour>
      <point x="330" y="266" type="line"/>
      <point x="320" y="186"/>
      <point x="298" y="147"/>
      <point x="240" y="147" type="curve" smooth="yes"/>
      <point x="174" y="147"/>
      <point x="147" y="207"/>
      <point x="147" y="351" type="curve" smooth="yes"/>
      <point x="147" y="493"/>
      <point x="175" y="555"/>
      <point x="241" y="555" type="curve" smooth="yes"/>
      <point x="303" y="555"/>
      <point x="322" y="508"/>
      <point x="329" y="435" type="curve"/>
      <point x="264" y="424" type="line"/>
      <point x="258" y="480"/>
      <point x="255" y="496"/>
      <point x="240" y="496" type="curve" smooth="yes"/>
      <point x="220" y="496"/>
      <point x="216" y="466"/>
      <point x="216" y="352" type="curve" smooth="yes"/>
      <point x="216" y="234"/>
      <point x="221" y="208"/>
      <point x="242" y="208" type="curve" smooth="yes"/>
      <point x="255" y="208"/>
      <point x="261" y="219"/>
      <point x="266" y="279" type="curve"/>
    </contour>
  </outline>
</glyph>
<glyph name="ordfeminine" format="1">
  <advance width="307"/>
  <unicode hex="00AA"/>
  <outline>
    <contour>
      <point x="266" y="282" type="line"/>
      <point x="177" y="282" type="line"/>
      <point x="177" y="300" type="line"/>
      <point x="161" y="282"/>
      <point x="145" y="273"/>
      <point x="119" y="273" type="curve" smooth="yes"/>
      <point x="64" y="273"/>
      <point x="34" y="319"/>
      <point x="34" y="412" type="curve" smooth="yes"/>
      <point x="34" y="504"/>
      <point x="66" y="553"/>
      <point x="131" y="553" type="curve" smooth="yes"/>
      <point x="152" y="553"/>
      <point x="166" y="548"/>
      <point x="177" y="541" type="curve"/>
      <point x="177" y="590" type="line" smooth="yes"/>
      <point x="177" y="619"/>
      <point x="169" y="630"/>
      <point x="147" y="630" type="curve" smooth="yes"/>
      <point x="125" y="630"/>
      <point x="107" y="619"/>
      <point x="82" y="598" type="curve"/>
      <point x="46" y="661" type="line"/>
      <point x="76" y="689"/>
      <point x="119" y="711"/>
      <point x="161" y="711" type="curve" smooth="yes"/>
      <point x="230" y="711"/>
      <point x="266" y="681"/>
      <point x="266" y="599" type="curve" smooth="yes"/>
    </contour>
    <contour>
      <point x="177" y="358" type="curve"/>
      <point x="177" y="473" type="line"/>
      <point x="169" y="478"/>
      <point x="162" y="481"/>
      <point x="148" y="481" type="curve" smooth="yes"/>
      <point x="127" y="481"/>
      <point x="119" y="462"/>
      <point x="119" y="413" type="curve" smooth="yes"/>
      <point x="119" y="367"/>
      <point x="127" y="346"/>
      <point x="150" y="346" type="curve" smooth="yes"/>
      <point x="160" y="346"/>
      <point x="170" y="350"/>
    </contour>
  </outline>
</glyph>
<glyph name="guillemotleft" format="1">
  <advance width="425"/>
  <unicode hex="00AB"/>
  <outline>
    <contour>
      <point x="399" y="0" type="line"/>
      <point x="297" y="0" type="line"/>
      <point x="185" y="262" type="line"/>
      <point x="297" y="525" type="line"/>
      <point x="399" y="525" type="line"/>
      <point x="290" y="263" type="line"/>
    </contour>
    <contour>
      <point x="227" y="0" type="line"/>
      <point x="125" y="0" type="line"/>
      <point x="13" y="262" type="line"/>
      <point x="125" y="525" type="line"/>
      <point x="227" y="525" type="line"/>
      <point x="118" y="263" type="line"/>
    </contour>
  </outline>
</glyph>
<glyph name="degree" format="1">
  <advance width="351"/>
  <unicode hex="00B0"/>
  <outline>
    <contour>
      <point x="325" y="559" type="curve" smooth="yes"/>
      <point x="325" y="472"/>
      <point x="263" y="405"/>
      <point x="176" y="405" type="curve" smooth="yes"/>
      <point x="89" y="405"/>
      <point x="27" y="472"/>
      <point x="27" y="559" type="curve" smooth="yes"/>
      <point x="27" y="644"/>
      <point x="89" y="711"/>
      <point x="176" y="711" type="curve" smooth="yes"/>
      <point x="263" y="711"/>
      <point x="325" y="644"/>
    </contour>
    <contour>
      <point x="249" y="559" type="curve" smooth="yes"/>
      <point x="249" y="605"/>
      <point x="219" y="638"/>
      <point x="176" y="638" type="curve" smooth="yes"/>
      <point x="133" y="638"/>
      <point x="103" y="605"/>
      <point x="103" y="559" type="curve" smooth="yes"/>
      <point x="103" y="512"/>
      <point x="133" y="477"/>
      <point x="176" y="477" type="curve" smooth="yes"/>
      <point x="219" y="477"/>
      <point x="249" y="512"/>
    </contour>
  </outline>
</glyph>
<glyph name="acute" format="1">
  <advance width="330"/>
  <unicode hex="00B4"/>
  <outline>
    <contour>
      <point x="280" y="749" type="line"/>
      <point x="157" y="589" type="line"/>
      <point x="84" y="589" type="line"/>
      <point x="157" y="749" type="line"/>
    </contour>
  </outline>
</glyph>
<glyph name="paragraph" format="1">
  <advance width="491"/>
  <unicode hex="00B6"/>
  <outline>
    <contour>
      <point x="444" y="-185" type="line"/>
      <point x="358" y="-185" type="line"/>
      <point x="358" y="623" type="line"/>
      <point x="304" y="623" type="line"/>
      <point x="304" y="-185" type="line"/>
      <point x="219" y="-185" type="line"/>
      <point x="219" y="308" type="line"/>
      <point x="203" y="308" type="line" smooth="yes"/>
      <point x="105" y="308"/>
      <point x="27" y="375"/>
      <point x="27" y="505" type="curve" smooth="yes"/>
      <point x="27" y="633"/>
      <point x="111" y="700"/>
      <point x="210" y="700" type="curve" smooth="yes"/>
      <point x="444" y="700" type="line"/>
    </contour>
  </outline>
</glyph>
<glyph name="periodcentered" format="1">
  <advance width="205"/>
  <unicode hex="00B7"/>
  <outline>
    <contour>
      <point x="171" y="367" type="curve" smooth="yes"/>
      <point x="171" y="329"/>
      <point x="143" y="300"/>
      <point x="104" y="300" type="curve" smooth="yes"/>
      <point x="65" y="300"/>
      <point x="37" y="329"/>
      <point x="37" y="367" type="curve" smooth="yes"/>
      <point x="37" y="406"/>
      <point x="65" y="435"/>
      <point x="104" y="435" type="curve" smooth="yes"/>
      <point x="143" y="435"/>
      <point x="171" y="406"/>
    </contour>
  </outline>
</glyph>
<glyph name="cedilla" format="1">
  <advance width="330"/>
  <unicode hex="00B8"/>
  <outline>
    <contour>
      <point x="254" y="-113" type="curve" smooth="yes"/>
      <point x="254" y="-168"/>
      <point x="212" y="-193"/>
      <point x="160" y="-193" type="curve" smooth="yes"/>
      <point x="128" y="-193"/>
      <point x="94" y="-180"/>
      <point x="70" y="-163" type="curve"/>
      <point x="89" y="-130" type="line"/>
      <point x="114" y="-145"/>
      <point x="131" y="-152"/>
      <point x="152" y="-152" type="curve" smooth="yes"/>
      <point x="175" y="-152"/>
      <point x="190" y="-137"/>
      <point x="190" y="-114" type="curve" smooth="yes"/>
      <point x="190" y="-93"/>
      <point x="178" y="-85"/>
      <point x="165" y="-85" type="curve" smooth="yes"/>
      <point x="155" y="-85"/>
      <point x="145" y="-88"/>
      <point x="136" y="-96" type="curve"/>
      <point x="103" y="-77" type="line"/>
      <point x="131" y="0" type="line"/>
      <point x="173" y="0" type="line"/>
      <point x="155" y="-50" type="line"/>
      <point x="164" y="-45"/>
      <point x="177" y="-41"/>
      <point x="194" y="-41" type="curve" smooth="yes"/>
      <point x="225" y="-41"/>
      <point x="254" y="-67"/>
    </contour>
  </outline>
</glyph>
<glyph name="ordmasculine" format="1">
  <advance width="317"/>
  <unicode hex="00BA"/>
  <outline>
    <contour>
      <point x="280" y="494" type="curve" smooth="yes"/>
      <point x="280" y="360"/>
      <point x="249" y="274"/>
      <point x="156" y="274" type="curve" smooth="yes"/>
      <point x="70" y="274"/>
      <point x="37" y="358"/>
      <point x="37" y="490" type="curve" smooth="yes"/>
      <point x="37" y="619"/>
      <point x="62" y="711"/>
      <point x="160" y="711" type="curve" smooth="yes"/>
      <point x="248" y="711"/>
      <point x="280" y="624"/>
    </contour>
    <contour>
      <point x="192" y="491" type="curve" smooth="yes"/>
      <point x="192" y="584"/>
      <point x="186" y="634"/>
      <point x="158" y="634" type="curve" smooth="yes"/>
      <point x="129" y="634"/>
      <point x="125" y="582"/>
      <point x="125" y="494" type="curve" smooth="yes"/>
      <point x="125" y="403"/>
      <point x="127" y="351"/>
      <point x="159" y="351" type="curve" smooth="yes"/>
      <point x="188" y="351"/>
      <point x="192" y="403"/>
    </contour>
  </outline>
</glyph>
<glyph name="guillemotright" format="1">
  <advance width="425"/>
  <unicode hex="00BB"/>
  <outline>
    <contour>
      <point x="412" y="263" type="line"/>
      <point x="300" y="0" type="line"/>
      <point x="198" y="0" type="line"/>
      <point x="307" y="262" type="line"/>
      <point x="198" y="525" type="line"/>
      <point x="300" y="525" type="line"/>
    </contour>
    <contour>
      <point x="240" y="263" type="line"/>
      <point x="128" y="0" type="line"/>
      <point x="26" y="0" type="line"/>
      <point x="135" y="262" type="line"/>
      <point x="26" y="525" type="line"/>
      <point x="128" y="525" type="line"/>
    </contour>
  </outline>
</glyph>
<glyph name="questiondown" format="1">
  <advance width="327"/>
  <unicode hex="00BF"/>
  <outline>
    <contour>
      <point x="249" y="645" type="curve" smooth="yes"/>
      <point x="249" y="607"/>
      <point x="222" y="579"/>
      <point x="184" y="579" type="curve" smooth="yes"/>
      <point x="145" y="579"/>
      <point x="118" y="607"/>
      <point x="118" y="645" type="curve" smooth="yes"/>
      <point x="118" y="683"/>
      <point x="145" y="711"/>
      <point x="184" y="711" type="curve" smooth="yes"/>
      <point x="222" y="711"/>
      <point x="249" y="683"/>
    </contour>
    <contour>
      <point x="317" y="147" type="line"/>
      <point x="298" y="49"/>
      <point x="253" y="-11"/>
      <point x="161" y="-11" type="curve" smooth="yes"/>
      <point x="66" y="-11"/>
      <point x="18" y="56"/>
      <point x="18" y="152" type="curve" smooth="yes"/>
      <point x="18" y="225"/>
      <point x="39" y="272"/>
      <point x="81" y="328" type="curve" smooth="yes"/>
      <point x="127" y="391"/>
      <point x="135" y="422"/>
      <point x="135" y="516" type="curve"/>
      <point x="233" y="516" type="line"/>
      <point x="233" y="399"/>
      <point x="221" y="351"/>
      <point x="169" y="280" type="curve" smooth="yes"/>
      <point x="137" y="236"/>
      <point x="123" y="203"/>
      <point x="123" y="158" type="curve" smooth="yes"/>
      <point x="123" y="114"/>
      <point x="135" y="90"/>
      <point x="163" y="90" type="curve" smooth="yes"/>
      <point x="194" y="90"/>
      <point x="204" y="113"/>
      <point x="218" y="175" type="curve"/>
    </contour>
  </outline>
</glyph>
<glyph name="Aring" format="1">
  <advance width="367"/>
  <unicode hex="00C5"/>
  <outline>
    <contour>
      <point x="355" y="0" type="line"/>
      <point x="243" y="0" type="line"/>
      <point x="224" y="154" type="line"/>
      <point x="142" y="154" type="line"/>
      <point x="124" y="0" type="line"/>
      <point x="13" y="0" type="line"/>
      <point x="117" y="654" type="line"/>
      <point x="96" y="672"/>
      <point x="84" y="699"/>
      <point x="84" y="730" type="curve" smooth="yes"/>
      <point x="84" y="787"/>
      <point x="126" y="830"/>
      <point x="184" y="830" type="curve" smooth="yes"/>
      <point x="242" y="830"/>
      <point x="284" y="787"/>
      <point x="284" y="730" type="curve" smooth="yes"/>
      <point x="284" y="699"/>
      <point x="272" y="672"/>
      <point x="251" y="654" type="curve"/>
    </contour>
    <contour>
      <point x="228" y="730" type="curve" smooth="yes"/>
      <point x="228" y="756"/>
      <point x="209" y="776"/>
      <point x="184" y="776" type="curve" smooth="yes"/>
      <point x="159" y="776"/>
      <point x="140" y="756"/>
      <point x="140" y="730" type="curve" smooth="yes"/>
      <point x="140" y="703"/>
      <point x="159" y="683"/>
      <point x="184" y="683" type="curve" smooth="yes"/>
      <point x="209" y="683"/>
      <point x="228" y="703"/>
    </contour>
    <contour>
      <point x="213" y="255" type="line"/>
      <point x="197" y="383" type="line" smooth="yes"/>
      <point x="191" y="433"/>
      <point x="184" y="490"/>
      <point x="181" y="545" type="curve"/>
      <point x="179" y="490"/>
      <point x="172" y="432"/>
      <point x="166" y="382" type="curve" smooth="yes"/>
      <point x="151" y="255" type="line"/>
    </contour>
  </outline>
</glyph>
<glyph name="AE" format="1">
  <advance width="522"/>
  <unicode hex="00C6"/>
  <outline>
    <contour>
      <point x="502" y="0" type="line"/>
      <point x="236" y="0" type="line"/>
      <point x="236" y="154" type="line"/>
      <point x="149" y="154" type="line"/>
      <point x="116" y="0" type="line"/>
      <point x="6" y="0" type="line"/>
      <point x="173" y="700" type="line"/>
      <point x="493" y="700" type="line"/>
      <point x="493" y="596" type="line"/>
      <point x="343" y="596" type="line"/>
      <point x="343" y="421" type="line"/>
      <point x="458" y="421" type="line"/>
      <point x="458" y="317" type="line"/>
      <point x="343" y="317" type="line"/>
      <point x="343" y="104" type="line"/>
      <point x="502" y="104" type="line"/>
    </contour>
    <contour>
      <point x="238" y="589" type="curve"/>
      <point x="231" y="554"/>
      <point x="221" y="502"/>
      <point x="212" y="460" type="curve" smooth="yes"/>
      <point x="170" y="255" type="line"/>
      <point x="236" y="255" type="line"/>
      <point x="236" y="468" type="line" smooth="yes"/>
      <point x="236" y="511"/>
      <point x="237" y="561"/>
    </contour>
  </outline>
</glyph>
<glyph name="Ccedilla" format="1">
  <advance width="371"/>
  <unicode hex="00C7"/>
  <outline>
    <contour>
      <point x="346" y="199" type="line"/>
      <point x="332" y="70"/>
      <point x="302" y="-5"/>
      <point x="203" y="-11" type="curve"/>
      <point x="190" y="-50" type="line"/>
      <point x="198" y="-45"/>
      <point x="211" y="-41"/>
      <point x="228" y="-41" type="curve" smooth="yes"/>
      <point x="259" y="-41"/>
      <point x="288" y="-67"/>
      <point x="288" y="-113" type="curve" smooth="yes"/>
      <point x="288" y="-168"/>
      <point x="246" y="-193"/>
      <point x="195" y="-193" type="curve" smooth="yes"/>
      <point x="162" y="-193"/>
      <point x="128" y="-180"/>
      <point x="104" y="-163" type="curve"/>
      <point x="123" y="-130" type="line"/>
      <point x="148" y="-145"/>
      <point x="165" y="-152"/>
      <point x="186" y="-152" type="curve" smooth="yes"/>
      <point x="210" y="-152"/>
      <point x="224" y="-137"/>
      <point x="224" y="-114" type="curve" smooth="yes"/>
      <point x="224" y="-93"/>
      <point x="213" y="-85"/>
      <point x="199" y="-85" type="curve" smooth="yes"/>
      <point x="189" y="-85"/>
      <point x="179" y="-88"/>
      <point x="170" y="-96" type="curve"/>
      <point x="138" y="-77" type="line"/>
      <point x="162" y="-9" type="line"/>
      <point x="65" y="9"/>
      <point x="30" y="120"/>
      <point x="30" y="348" type="curve" smooth="yes"/>
      <point x="30" y="597"/>
      <point x="70" y="711"/>
      <point x="193" y="711" type="curve" smooth="yes"/>
      <point x="302" y="711"/>
      <point x="338" y="623"/>
      <point x="344" y="498" type="curve"/>
      <point x="234" y="482" type="line"/>
      <point x="229" y="571"/>
      <point x="221" y="608"/>
      <point x="192" y="608" type="curve" smooth="yes"/>
      <point x="157" y="608"/>
      <point x="145" y="569"/>
      <point x="145" y="352" type="curve" smooth="yes"/>
      <point x="145" y="134"/>
      <point x="158" y="92"/>
      <point x="195" y="92" type="curve" smooth="yes"/>
      <point x="220" y="92"/>
      <point x="230" y="117"/>
      <point x="238" y="215" type="curve"/>
    </contour>
  </outline>
</glyph>
<glyph name="Eth" format="1">
  <advance width="398"/>
  <unicode hex="00D0"/>
  <outline>
    <contour>
      <point x="369" y="355" type="curve" smooth="yes"/>
      <point x="369" y="115"/>
      <point x="312" y="0"/>
      <point x="185" y="0" type="curve" smooth="yes"/>
      <point x="57" y="0" type="line"/>
      <point x="57" y="319" type="line"/>
      <point x="21" y="319" type="line"/>
      <point x="21" y="413" type="line"/>
      <point x="57" y="413" type="line"/>
      <point x="57" y="700" type="line"/>
      <point x="196" y="700" type="line" smooth="yes"/>
      <point x="332" y="700"/>
      <point x="369" y="572"/>
    </contour>
    <contour>
      <point x="254" y="354" type="curve" smooth="yes"/>
      <point x="254" y="559"/>
      <point x="234" y="602"/>
      <point x="188" y="602" type="curve" smooth="yes"/>
      <point x="164" y="602" type="line"/>
      <point x="164" y="413" type="line"/>
      <point x="209" y="413" type="line"/>
      <point x="209" y="319" type="line"/>
      <point x="164" y="319" type="line"/>
      <point x="164" y="97" type="line"/>
      <point x="186" y="97" type="line" smooth="yes"/>
      <point x="230" y="97"/>
      <point x="254" y="142"/>
    </contour>
  </outline>
</glyph>
<glyph name="Oslash" format="1">
  <advance width="386"/>
  <unicode hex="00D8"/>
  <outline>
    <contour>
      <point x="367" y="750" type="line"/>
      <point x="325" y="613" type="line"/>
      <point x="348" y="553"/>
      <point x="357" y="466"/>
      <point x="357" y="352" type="curve" smooth="yes"/>
      <point x="357" y="108"/>
      <point x="317" y="-11"/>
      <point x="191" y="-11" type="curve" smooth="yes"/>
      <point x="171" y="-11"/>
      <point x="153" y="-8"/>
      <point x="137" y="-1" type="curve"/>
      <point x="122" y="-50" type="line"/>
      <point x="20" y="-50" type="line"/>
      <point x="61" y="85" type="line"/>
      <point x="39" y="145"/>
      <point x="30" y="232"/>
      <point x="30" y="348" type="curve" smooth="yes"/>
      <point x="30" y="592"/>
      <point x="69" y="711"/>
      <point x="193" y="711" type="curve" smooth="yes"/>
      <point x="214" y="711"/>
      <point x="233" y="707"/>
      <point x="250" y="700" type="curve"/>
      <point x="265" y="750" type="line"/>
    </contour>
    <contour>
      <point x="241" y="348" type="curve" smooth="yes"/>
      <point x="241" y="562"/>
      <point x="228" y="608"/>
      <point x="192" y="608" type="curve" smooth="yes"/>
      <point x="155" y="608"/>
      <point x="145" y="564"/>
      <point x="145" y="352" type="curve" smooth="yes"/>
      <point x="145" y="138"/>
      <point x="158" y="92"/>
      <point x="193" y="92" type="curve" smooth="yes"/>
      <point x="229" y="92"/>
      <point x="241" y="136"/>
    </contour>
  </outline>
</glyph>
<glyph name="Thorn" format="1">
  <advance width="366"/>
  <unicode hex="00DE"/>
  <outline>
    <contour>
      <point x="349" y="368" type="curve" smooth="yes"/>
      <point x="349" y="220"/>
      <point x="276" y="158"/>
      <point x="185" y="158" type="curve" smooth="yes"/>
      <point x="156" y="158" type="line"/>
      <point x="156" y="0" type="line"/>
      <point x="45" y="0" type="line"/>
      <point x="45" y="700" type="line"/>
      <point x="156" y="700" type="line"/>
      <point x="156" y="566" type="line"/>
      <point x="192" y="566" type="line" smooth="yes"/>
      <point x="277" y="566"/>
      <point x="349" y="517"/>
    </contour>
    <contour>
      <point x="236" y="363" type="curve" smooth="yes"/>
      <point x="236" y="442"/>
      <point x="221" y="471"/>
      <point x="182" y="471" type="curve" smooth="yes"/>
      <point x="156" y="471" type="line"/>
      <point x="156" y="254" type="line"/>
      <point x="179" y="254" type="line" smooth="yes"/>
      <point x="217" y="254"/>
      <point x="236" y="286"/>
    </contour>
  </outline>
</glyph>
<glyph name="germandbls" format="1">
  <advance width="379"/>
  <unicode hex="00DF"/>
  <outline>
    <contour>
      <point x="354" y="226" type="curve" smooth="yes"/>
      <point x="354" y="68"/>
      <point x="308" y="0"/>
      <point x="181" y="0" type="curve" smooth="yes"/>
      <point x="174" y="0" type="line"/>
      <point x="174" y="95" type="line"/>
      <point x="181" y="95" type="line" smooth="yes"/>
      <point x="228" y="95"/>
      <point x="240" y="123"/>
      <point x="240" y="219" type="curve" smooth="yes"/>
      <point x="240" y="326"/>
      <point x="222" y="350"/>
      <point x="181" y="350" type="curve" smooth="yes"/>
      <point x="174" y="350" type="line"/>
      <point x="174" y="445" type="line"/>
      <point x="181" y="445" type="line" smooth="yes"/>
      <point x="205" y="445"/>
      <point x="215" y="462"/>
      <point x="215" y="538" type="curve" smooth="yes"/>
      <point x="215" y="606"/>
      <point x="206" y="633"/>
      <point x="177" y="633" type="curve" smooth="yes"/>
      <point x="149" y="633"/>
      <point x="141" y="610"/>
      <point x="141" y="555" type="curve" smooth="yes"/>
      <point x="141" y="-145" type="line"/>
      <point x="35" y="-193" type="line"/>
      <point x="35" y="550" type="line" smooth="yes"/>
      <point x="35" y="671"/>
      <point x="95" y="726"/>
      <point x="183" y="726" type="curve" smooth="yes"/>
      <point x="274" y="726"/>
      <point x="325" y="660"/>
      <point x="325" y="549" type="curve" smooth="yes"/>
      <point x="325" y="465"/>
      <point x="302" y="429"/>
      <point x="272" y="403" type="curve"/>
      <point x="320" y="381"/>
      <point x="354" y="340"/>
    </contour>
  </outline>
</glyph>
<glyph name="ae" format="1">
  <advance width="506"/>
  <unicode hex="00E6"/>
  <outline>
    <contour>
      <point x="482" y="229" type="curve"/>
      <point x="296" y="229" type="line"/>
      <point x="298" y="119"/>
      <point x="312" y="84"/>
      <point x="342" y="84" type="curve" smooth="yes"/>
      <point x="364" y="84"/>
      <point x="372" y="101"/>
      <point x="387" y="155" type="curve"/>
      <point x="479" y="124" type="line"/>
      <point x="454" y="44"/>
      <point x="423" y="-11"/>
      <point x="337" y="-11" type="curve" smooth="yes"/>
      <point x="295" y="-11"/>
      <point x="265" y="8"/>
      <point x="246" y="37" type="curve"/>
      <point x="222" y="11"/>
      <point x="184" y="-11"/>
      <point x="145" y="-11" type="curve" smooth="yes"/>
      <point x="53" y="-11"/>
      <point x="19" y="46"/>
      <point x="19" y="162" type="curve" smooth="yes"/>
      <point x="19" y="277"/>
      <point x="58" y="338"/>
      <point x="139" y="338" type="curve" smooth="yes"/>
      <point x="165" y="338"/>
      <point x="184" y="331"/>
      <point x="198" y="322" type="curve"/>
      <point x="198" y="385" type="line" smooth="yes"/>
      <point x="198" y="423"/>
      <point x="187" y="437"/>
      <point x="158" y="437" type="curve" smooth="yes"/>
      <point x="132" y="437"/>
      <point x="110" y="423"/>
      <point x="79" y="397" type="curve"/>
      <point x="35" y="475" type="line"/>
      <point x="72" y="509"/>
      <point x="122" y="536"/>
      <point x="173" y="536" type="curve" smooth="yes"/>
      <point x="222" y="536"/>
      <point x="246" y="514"/>
      <point x="258" y="485" type="curve"/>
      <point x="274" y="513"/>
      <point x="302" y="536"/>
      <point x="344" y="536" type="curve" smooth="yes"/>
      <point x="437" y="536"/>
      <point x="482" y="440"/>
      <point x="482" y="261" type="curve" smooth="yes"/>
      <point x="482" y="255"/>
      <point x="482" y="238"/>
    </contour>
    <contour>
      <point x="380" y="313" type="line"/>
      <point x="378" y="401"/>
      <point x="366" y="446"/>
      <point x="339" y="446" type="curve" smooth="yes"/>
      <point x="312" y="446"/>
      <point x="300" y="412"/>
      <point x="297" y="313" type="curve"/>
    </contour>
    <contour>
      <point x="211" y="103" type="curve"/>
      <point x="202" y="139"/>
      <point x="197" y="188"/>
      <point x="196" y="240" type="curve"/>
      <point x="186" y="246"/>
      <point x="177" y="249"/>
      <point x="160" y="249" type="curve" smooth="yes"/>
      <point x="134" y="249"/>
      <point x="122" y="226"/>
      <point x="122" y="164" type="curve" smooth="yes"/>
      <point x="122" y="105"/>
      <point x="135" y="80"/>
      <point x="165" y="80" type="curve" smooth="yes"/>
      <point x="181" y="80"/>
      <point x="198" y="91"/>
    </contour>
  </outline>
</glyph>
<glyph name="ccedilla" format="1">
  <advance width="329"/>
  <unicode hex="00E7"/>
  <outline>
    <contour>
      <point x="310" y="148" type="line"/>
      <point x="293" y="48"/>
      <point x="253" y="-7"/>
      <point x="182" y="-11" type="curve"/>
      <point x="168" y="-49" type="line"/>
      <point x="177" y="-44"/>
      <point x="190" y="-40"/>
      <point x="207" y="-40" type="curve" smooth="yes"/>
      <point x="238" y="-40"/>
      <point x="267" y="-66"/>
      <point x="267" y="-113" type="curve" smooth="yes"/>
      <point x="267" y="-167"/>
      <point x="225" y="-193"/>
      <point x="173" y="-193" type="curve" smooth="yes"/>
      <point x="140" y="-193"/>
      <point x="106" y="-179"/>
      <point x="82" y="-162" type="curve"/>
      <point x="101" y="-129" type="line"/>
      <point x="126" y="-145"/>
      <point x="143" y="-151"/>
      <point x="164" y="-151" type="curve" smooth="yes"/>
      <point x="187" y="-151"/>
      <point x="202" y="-136"/>
      <point x="202" y="-114" type="curve" smooth="yes"/>
      <point x="202" y="-93"/>
      <point x="190" y="-85"/>
      <point x="177" y="-85" type="curve" smooth="yes"/>
      <point x="167" y="-85"/>
      <point x="158" y="-89"/>
      <point x="149" y="-96" type="curve"/>
      <point x="115" y="-76" type="line"/>
      <point x="140" y="-7" type="line"/>
      <point x="69" y="10"/>
      <point x="25" y="86"/>
      <point x="25" y="259" type="curve" smooth="yes"/>
      <point x="25" y="459"/>
      <point x="74" y="536"/>
      <point x="177" y="536" type="curve" smooth="yes"/>
      <point x="263" y="536"/>
      <point x="297" y="464"/>
      <point x="308" y="375" type="curve"/>
      <point x="210" y="348" type="line"/>
      <point x="204" y="408"/>
      <point x="197" y="437"/>
      <point x="174" y="437" type="curve" smooth="yes"/>
      <point x="138" y="437"/>
      <point x="132" y="382"/>
      <point x="132" y="261" type="curve" smooth="yes"/>
      <point x="132" y="137"/>
      <point x="138" y="88"/>
      <point x="175" y="88" type="curve" smooth="yes"/>
      <point x="195" y="88"/>
      <point x="204" y="109"/>
      <point x="215" y="178" type="curve"/>
    </contour>
  </outline>
</glyph>
<glyph name="eth" format="1">
  <advance width="349"/>
  <unicode hex="00F0"/>
  <outline>
    <contour>
      <point x="326" y="277" type="curve" smooth="yes"/>
      <point x="326" y="72"/>
      <point x="283" y="-11"/>
      <point x="174" y="-11" type="curve" smooth="yes"/>
      <point x="71" y="-11"/>
      <point x="25" y="83"/>
      <point x="25" y="235" type="curve" smooth="yes"/>
      <point x="25" y="383"/>
      <point x="69" y="486"/>
      <point x="161" y="486" type="curve" smooth="yes"/>
      <point x="201" y="486"/>
      <point x="224" y="470"/>
      <point x="243" y="434" type="curve"/>
      <point x="237" y="481"/>
      <point x="223" y="523"/>
      <point x="201" y="556" type="curve"/>
      <point x="161" y="514" type="line"/>
      <point x="112" y="561" type="line"/>
      <point x="152" y="603" type="line"/>
      <point x="133" y="615"/>
      <point x="111" y="624"/>
      <point x="85" y="628" type="curve"/>
      <point x="85" y="711" type="line"/>
      <point x="137" y="706"/>
      <point x="178" y="691"/>
      <point x="211" y="666" type="curve"/>
      <point x="254" y="711" type="line"/>
      <point x="302" y="664" type="line"/>
      <point x="257" y="616" type="line"/>
      <point x="307" y="544"/>
      <point x="326" y="431"/>
    </contour>
    <contour>
      <point x="220" y="236" type="curve" smooth="yes"/>
      <point x="220" y="351"/>
      <point x="207" y="388"/>
      <point x="175" y="388" type="curve" smooth="yes"/>
      <point x="142" y="388"/>
      <point x="132" y="349"/>
      <point x="132" y="238" type="curve" smooth="yes"/>
      <point x="132" y="125"/>
      <point x="142" y="86"/>
      <point x="177" y="86" type="curve" smooth="yes"/>
      <point x="208" y="86"/>
      <point x="220" y="125"/>
    </contour>
  </outline>
</glyph>
<glyph name="oslash" format="1">
  <advance width="349"/>
  <unicode hex="00F8"/>
  <outline>
    <contour>
      <point x="336" y="575" type="line"/>
      <point x="295" y="461" type="line"/>
      <point x="317" y="413"/>
      <point x="326" y="345"/>
      <point x="326" y="264" type="curve" smooth="yes"/>
      <point x="326" y="98"/>
      <point x="292" y="-11"/>
      <point x="174" y="-11" type="curve" smooth="yes"/>
      <point x="156" y="-11"/>
      <point x="140" y="-8"/>
      <point x="126" y="-3" type="curve"/>
      <point x="109" y="-50" type="line"/>
      <point x="15" y="-50" type="line"/>
      <point x="57" y="65" type="line"/>
      <point x="34" y="113"/>
      <point x="25" y="179"/>
      <point x="25" y="260" type="curve" smooth="yes"/>
      <point x="25" y="421"/>
      <point x="54" y="536"/>
      <point x="178" y="536" type="curve" smooth="yes"/>
      <point x="195" y="536"/>
      <point x="211" y="533"/>
      <point x="225" y="528" type="curve"/>
      <point x="242" y="575" type="line"/>
    </contour>
    <contour>
      <point x="220" y="261" type="curve" smooth="yes"/>
      <point x="220" y="378"/>
      <point x="213" y="439"/>
      <point x="176" y="439" type="curve" smooth="yes"/>
      <point x="137" y="439"/>
      <point x="132" y="375"/>
      <point x="132" y="264" type="curve" smooth="yes"/>
      <point x="132" y="150"/>
      <point x="135" y="86"/>
      <point x="177" y="86" type="curve" smooth="yes"/>
      <point x="215" y="86"/>
      <point x="220" y="150"/>
    </contour>
  </outline>
</glyph>
<glyph name="Lslash" format="1">
  <advance width="320"/>
  <unicode hex="0141"/>
  <outline>
    <contour>
      <point x="303" y="0" type="line"/>
      <point x="57" y="0" type="line"/>
      <point x="57" y="239" type="line"/>
      <point x="21" y="209" type="line"/>
      <point x="21" y="328" type="line"/>
      <point x="57" y="359" type="line"/>
      <point x="57" y="700" type="line"/>
      <point x="165" y="700" type="line"/>
      <point x="165" y="446" type="line"/>
      <point x="228" y="499" type="line"/>
      <point x="228" y="380" type="line"/>
      <point x="165" y="327" type="line"/>
      <point x="165" y="104" type="line"/>
      <point x="303" y="104" type="line"/>
    </contour>
  </outline>
</glyph>
<glyph name="lslash" format="1">
  <advance width="207"/>
  <unicode hex="0142"/>
  <outline>
    <contour>
      <point x="190" y="363" type="line"/>
      <point x="154" y="331" type="line"/>
      <point x="154" y="0" type="line"/>
      <point x="52" y="0" type="line"/>
      <point x="52" y="241" type="line"/>
      <point x="16" y="209" type="line"/>
      <point x="16" y="324" type="line"/>
      <point x="52" y="357" type="line"/>
      <point x="52" y="682" type="line"/>
      <point x="154" y="729" type="line"/>
      <point x="154" y="445" type="line"/>
      <point x="190" y="478" type="line"/>
    </contour>
  </outline>
</glyph>
<glyph name="OE" format="1">
  <advance width="530"/>
  <unicode hex="0152"/>
  <outline>
    <contour>
      <point x="510" y="0" type="line"/>
      <point x="278" y="0" type="line"/>
      <point x="278" y="49" type="line"/>
      <point x="259" y="8"/>
      <point x="232" y="-11"/>
      <point x="187" y="-11" type="curve" smooth="yes"/>
      <point x="70" y="-11"/>
      <point x="30" y="106"/>
      <point x="30" y="348" type="curve" smooth="yes"/>
      <point x="30" y="592"/>
      <point x="71" y="711"/>
      <point x="188" y="711" type="curve" smooth="yes"/>
      <point x="231" y="711"/>
      <point x="260" y="692"/>
      <point x="278" y="652" type="curve"/>
      <point x="278" y="700" type="line"/>
      <point x="501" y="700" type="line"/>
      <point x="501" y="596" type="line"/>
      <point x="351" y="596" type="line"/>
      <point x="351" y="421" type="line"/>
      <point x="466" y="421" type="line"/>
      <point x="466" y="317" type="line"/>
      <point x="351" y="317" type="line"/>
      <point x="351" y="104" type="line"/>
      <point x="510" y="104" type="line"/>
    </contour>
    <contour>
      <point x="241" y="348" type="curve" smooth="yes"/>
      <point x="241" y="562"/>
      <point x="228" y="608"/>
      <point x="192" y="608" type="curve" smooth="yes"/>
      <point x="155" y="608"/>
      <point x="145" y="564"/>
      <point x="145" y="352" type="curve" smooth="yes"/>
      <point x="145" y="138"/>
      <point x="158" y="92"/>
      <point x="193" y="92" type="curve" smooth="yes"/>
      <point x="229" y="92"/>
      <point x="241" y="136"/>
    </contour>
  </outline>
</glyph>
<glyph name="oe" format="1">
  <advance width="529"/>
  <unicode hex="0153"/>
  <outline>
    <contour>
      <point x="505" y="229" type="curve"/>
      <point x="318" y="229" type="line"/>
      <point x="320" y="119"/>
      <point x="335" y="84"/>
      <point x="364" y="84" type="curve" smooth="yes"/>
      <point x="387" y="84"/>
      <point x="394" y="101"/>
      <point x="409" y="155" type="curve"/>
      <point x="501" y="124" type="line"/>
      <point x="477" y="44"/>
      <point x="445" y="-11"/>
      <point x="360" y="-11" type="curve" smooth="yes"/>
      <point x="315" y="-11"/>
      <point x="284" y="17"/>
      <point x="269" y="52" type="curve"/>
      <point x="254" y="17"/>
      <point x="223" y="-11"/>
      <point x="174" y="-11" type="curve" smooth="yes"/>
      <point x="64" y="-11"/>
      <point x="25" y="95"/>
      <point x="25" y="260" type="curve" smooth="yes"/>
      <point x="25" y="421"/>
      <point x="54" y="536"/>
      <point x="178" y="536" type="curve" smooth="yes"/>
      <point x="225" y="536"/>
      <point x="256" y="508"/>
      <point x="271" y="473" type="curve"/>
      <point x="287" y="508"/>
      <point x="316" y="536"/>
      <point x="364" y="536" type="curve" smooth="yes"/>
      <point x="460" y="536"/>
      <point x="505" y="440"/>
      <point x="505" y="261" type="curve" smooth="yes"/>
      <point x="505" y="255"/>
      <point x="505" y="238"/>
    </contour>
    <contour>
      <point x="402" y="313" type="line"/>
      <point x="400" y="401"/>
      <point x="388" y="446"/>
      <point x="361" y="446" type="curve" smooth="yes"/>
      <point x="334" y="446"/>
      <point x="322" y="412"/>
      <point x="319" y="313" type="curve"/>
    </contour>
    <contour>
      <point x="219" y="261" type="curve" smooth="yes"/>
      <point x="219" y="378"/>
      <point x="213" y="439"/>
      <point x="176" y="439" type="curve" smooth="yes"/>
      <point x="137" y="439"/>
      <point x="132" y="375"/>
      <point x="132" y="264" type="curve" smooth="yes"/>
      <point x="132" y="150"/>
      <point x="135" y="86"/>
      <point x="177" y="86" type="curve" smooth="yes"/>
      <point x="215" y="86"/>
      <point x="219" y="150"/>
    </contour>
  </outline>
</glyph>
<glyph name="florin" format="1">
  <advance width="265"/>
  <unicode hex="0192"/>
  <outline>
    <contour>
      <point x="246" y="612" type="line"/>
      <point x="234" y="617"/>
      <point x="217" y="618"/>
      <point x="204" y="618" type="curve" smooth="yes"/>
      <point x="178" y="618"/>
      <point x="167" y="605"/>
      <point x="167" y="578" type="curve" smooth="yes"/>
      <point x="167" y="525" type="line"/>
      <point x="231" y="525" type="line"/>
      <point x="231" y="429" type="line"/>
      <point x="167" y="429" type="line"/>
      <point x="167" y="-145" type="line"/>
      <point x="64" y="-193" type="line"/>
      <point x="64" y="429" type="line"/>
      <point x="24" y="429" type="line"/>
      <point x="24" y="525" type="line"/>
      <point x="64" y="525" type="line"/>
      <point x="64" y="588" type="line" smooth="yes"/>
      <point x="64" y="670"/>
      <point x="106" y="711"/>
      <point x="176" y="711" type="curve" smooth="yes"/>
      <point x="209" y="711"/>
      <point x="225" y="709"/>
      <point x="246" y="702" type="curve"/>
    </contour>
  </outline>
</glyph>
<glyph name="circumflex" format="1">
  <advance width="330"/>
  <unicode hex="02C6"/>
  <outline>
    <contour>
      <point x="291" y="589" type="line"/>
      <point x="214" y="589" type="line"/>
      <point x="164" y="667" type="line"/>
      <point x="114" y="589" type="line"/>
      <point x="39" y="589" type="line"/>
      <point x="126" y="749" type="line"/>
      <point x="204" y="749" type="line"/>
    </contour>
  </outline>
</glyph>
<glyph name="caron" format="1">
  <advance width="330"/>
  <unicode hex="02C7"/>
  <outline>
    <contour>
      <point x="291" y="749" type="line"/>
      <point x="204" y="589" type="line"/>
      <point x="126" y="589" type="line"/>
      <point x="39" y="749" type="line"/>
      <point x="116" y="749" type="line"/>
      <point x="166" y="670" type="line"/>
      <point x="216" y="749" type="line"/>
    </contour>
  </outline>
</glyph>
<glyph name="breve" format="1">
  <advance width="330"/>
  <unicode hex="02D8"/>
  <outline>
    <contour>
      <point x="297" y="731" type="line"/>
      <point x="293" y="636"/>
      <point x="245" y="589"/>
      <point x="165" y="589" type="curve" smooth="yes"/>
      <point x="89" y="589"/>
      <point x="40" y="636"/>
      <point x="36" y="731" type="curve"/>
      <point x="103" y="731" type="line"/>
      <point x="108" y="682"/>
      <point x="125" y="658"/>
      <point x="167" y="658" type="curve" smooth="yes"/>
      <point x="205" y="658"/>
      <point x="225" y="681"/>
      <point x="230" y="731" type="curve"/>
    </contour>
  </outline>
</glyph>
<glyph name="dotaccent" format="1">
  <advance width="330"/>
  <unicode hex="02D9"/>
  <outline>
    <contour>
      <point x="226" y="651" type="curve" smooth="yes"/>
      <point x="226" y="617"/>
      <point x="199" y="589"/>
      <point x="165" y="589" type="curve" smooth="yes"/>
      <point x="131" y="589"/>
      <point x="104" y="617"/>
      <point x="104" y="651" type="curve" smooth="yes"/>
      <point x="104" y="684"/>
      <point x="131" y="712"/>
      <point x="165" y="712" type="curve" smooth="yes"/>
      <point x="199" y="712"/>
      <point x="226" y="684"/>
    </contour>
  </outline>
</glyph>
<glyph name="ring" format="1">
  <advance width="330"/>
  <unicode hex="02DA"/>
  <outline>
    <contour>
      <point x="265" y="690" type="curve" smooth="yes"/>
      <point x="265" y="633"/>
      <point x="223" y="590"/>
      <point x="165" y="590" type="curve" smooth="yes"/>
      <point x="107" y="590"/>
      <point x="65" y="633"/>
      <point x="65" y="690" type="curve" smooth="yes"/>
      <point x="65" y="747"/>
      <point x="107" y="790"/>
      <point x="165" y="790" type="curve" smooth="yes"/>
      <point x="223" y="790"/>
      <point x="265" y="747"/>
    </contour>
    <contour>
      <point x="209" y="690" type="curve" smooth="yes"/>
      <point x="209" y="716"/>
      <point x="190" y="736"/>
      <point x="165" y="736" type="curve" smooth="yes"/>
      <point x="140" y="736"/>
      <point x="121" y="716"/>
      <point x="121" y="690" type="curve" smooth="yes"/>
      <point x="121" y="663"/>
      <point x="140" y="643"/>
      <point x="165" y="643" type="curve" smooth="yes"/>
      <point x="190" y="643"/>
      <point x="209" y="663"/>
    </contour>
  </outline>
</glyph>
<glyph name="ogonek" format="1">
  <advance width="330"/>
  <unicode hex="02DB"/>
  <outline>
    <contour>
      <point x="262" y="-158" type="line"/>
      <point x="233" y="-179"/>
      <point x="203" y="-193"/>
      <point x="165" y="-193" type="curve" smooth="yes"/>
      <point x="118" y="-193"/>
      <point x="90" y="-164"/>
      <point x="90" y="-120" type="curve" smooth="yes"/>
      <point x="90" y="-79"/>
      <point x="112" y="-42"/>
      <point x="150" y="0" type="curve"/>
      <point x="198" y="0" type="line"/>
      <point x="170" y="-46"/>
      <point x="159" y="-76"/>
      <point x="159" y="-106" type="curve" smooth="yes"/>
      <point x="159" y="-132"/>
      <point x="170" y="-145"/>
      <point x="189" y="-145" type="curve" smooth="yes"/>
      <point x="207" y="-145"/>
      <point x="225" y="-139"/>
      <point x="245" y="-126" type="curve"/>
    </contour>
  </outline>
</glyph>
<glyph name="tilde" format="1">
  <advance width="330"/>
  <unicode hex="02DC"/>
  <outline>
    <contour>
      <point x="309" y="715" type="line"/>
      <point x="309" y="624"/>
      <point x="271" y="588"/>
      <point x="226" y="588" type="curve" smooth="yes"/>
      <point x="200" y="588"/>
      <point x="181" y="596"/>
      <point x="157" y="615" type="curve" smooth="yes"/>
      <point x="137" y="632"/>
      <point x="129" y="639"/>
      <point x="117" y="639" type="curve" smooth="yes"/>
      <point x="102" y="639"/>
      <point x="95" y="629"/>
      <point x="92" y="591" type="curve"/>
      <point x="21" y="591" type="line"/>
      <point x="21" y="682"/>
      <point x="59" y="718"/>
      <point x="104" y="718" type="curve" smooth="yes"/>
      <point x="130" y="718"/>
      <point x="149" y="710"/>
      <point x="173" y="691" type="curve" smooth="yes"/>
      <point x="193" y="674"/>
      <point x="202" y="667"/>
      <point x="213" y="667" type="curve" smooth="yes"/>
      <point x="228" y="667"/>
      <point x="235" y="678"/>
      <point x="238" y="715" type="curve"/>
    </contour>
  </outline>
</glyph>
<glyph name="hungarumlaut" format="1">
  <advance width="330"/>
  <unicode hex="02DD"/>
  <outline>
    <contour>
      <point x="343" y="749" type="line"/>
      <point x="220" y="589" type="line"/>
      <point x="156" y="589" type="line"/>
      <point x="229" y="749" type="line"/>
    </contour>
    <contour>
      <point x="198" y="749" type="line"/>
      <point x="75" y="589" type="line"/>
      <point x="10" y="589" type="line"/>
      <point x="84" y="749" type="line"/>
    </contour>
  </outline>
</glyph>
<glyph name="endash" format="1">
  <advance width="317"/>
  <unicode hex="2013"/>
  <outline>
    <contour>
      <point x="285" y="316" type="line"/>
      <point x="32" y="316" type="line"/>
      <point x="32" y="416" type="line"/>
      <point x="285" y="416" type="line"/>
    </contour>
  </outline>
</glyph>
<glyph name="emdash" format="1">
  <advance width="391"/>
  <unicode hex="2014"/>
  <outline>
    <contour>
      <point x="359" y="316" type="line"/>
      <point x="32" y="316" type="line"/>
      <point x="32" y="416" type="line"/>
      <point x="359" y="416" type="line"/>
    </contour>
  </outline>
</glyph>
<glyph name="quoteleft" format="1">
  <advance width="211"/>
  <unicode hex="2018"/>
  <unicode hex="02BB"/>
  <outline>
    <contour>
      <point x="164" y="700" type="line"/>
      <point x="151" y="487" type="line"/>
      <point x="36" y="487" type="line"/>
      <point x="99" y="700" type="line"/>
    </contour>
  </outline>
</glyph>
<glyph name="quoteright" format="1">
  <advance width="211"/>
  <unicode hex="2019"/>
  <unicode hex="02BC"/>
  <outline>
    <contour>
      <point x="175" y="700" type="line"/>
      <point x="112" y="487" type="line"/>
      <point x="47" y="487" type="line"/>
      <point x="60" y="700" type="line"/>
    </contour>
  </outline>
</glyph>
<glyph name="quotesinglbase" format="1">
  <advance width="211"/>
  <unicode hex="201A"/>
  <outline>
    <contour>
      <point x="175" y="118" type="line"/>
      <point x="112" y="-95" type="line"/>
      <point x="47" y="-95" type="line"/>
      <point x="60" y="118" type="line"/>
    </contour>
  </outline>
</glyph>
<glyph name="quotedblleft" format="1">
  <advance width="385"/>
  <unicode hex="201C"/>
  <outline>
    <contour>
      <point x="338" y="700" type="line"/>
      <point x="324" y="487" type="line"/>
      <point x="209" y="487" type="line"/>
      <point x="273" y="700" type="line"/>
    </contour>
    <contour>
      <point x="164" y="700" type="line"/>
      <point x="151" y="487" type="line"/>
      <point x="36" y="487" type="line"/>
      <point x="99" y="700" type="line"/>
    </contour>
  </outline>
</glyph>
<glyph name="quotedblright" format="1">
  <advance width="385"/>
  <unicode hex="201D"/>
  <outline>
    <contour>
      <point x="349" y="700" type="line"/>
      <point x="285" y="487" type="line"/>
      <point x="220" y="487" type="line"/>
      <point x="233" y="700" type="line"/>
    </contour>
    <contour>
      <point x="175" y="700" type="line"/>
      <point x="112" y="487" type="line"/>
      <point x="47" y="487" type="line"/>
      <point x="60" y="700" type="line"/>
    </contour>
  </outline>
</glyph>
<glyph name="quotedblbase" format="1">
  <advance width="385"/>
  <unicode hex="201E"/>
  <outline>
    <contour>
      <point x="349" y="118" type="line"/>
      <point x="285" y="-95" type="line"/>
      <point x="220" y="-95" type="line"/>
      <point x="233" y="118" type="line"/>
    </contour>
    <contour>
      <point x="175" y="118" type="line"/>
      <point x="112" y="-95" type="line"/>
      <point x="47" y="-95" type="line"/>
      <point x="60" y="118" type="line"/>
    </contour>
  </outline>
</glyph>
<glyph name="dagger" format="1">
  <advance width="358"/>
  <unicode hex="2020"/>
  <outline>
    <contour>
      <point x="340" y="380" type="line"/>
      <point x="231" y="380" type="line"/>
      <point x="231" y="-100" type="line"/>
      <point x="126" y="-100" type="line"/>
      <point x="126" y="380" type="line"/>
      <point x="18" y="380" type="line"/>
      <point x="18" y="481" type="line"/>
      <point x="126" y="481" type="line"/>
      <point x="126" y="700" type="line"/>
      <point x="231" y="700" type="line"/>
      <point x="231" y="481" type="line"/>
      <point x="340" y="481" type="line"/>
    </contour>
  </outline>
</glyph>
<glyph name="daggerdbl" format="1">
  <advance width="358"/>
  <unicode hex="2021"/>
  <outline>
    <contour>
      <point x="340" y="120" type="line"/>
      <point x="228" y="120" type="line"/>
      <point x="228" y="-100" type="line"/>
      <point x="129" y="-100" type="line"/>
      <point x="129" y="120" type="line"/>
      <point x="18" y="120" type="line"/>
      <point x="18" y="218" type="line"/>
      <point x="129" y="218" type="line"/>
      <point x="129" y="384" type="line"/>
      <point x="18" y="384" type="line"/>
      <point x="18" y="481" type="line"/>
      <point x="129" y="481" type="line"/>
      <point x="129" y="700" type="line"/>
      <point x="228" y="700" type="line"/>
      <point x="228" y="481" type="line"/>
      <point x="340" y="481" type="line"/>
      <point x="340" y="384" type="line"/>
      <point x="228" y="384" type="line"/>
      <point x="228" y="218" type="line"/>
      <point x="340" y="218" type="line"/>
    </contour>
  </outline>
</glyph>
<glyph name="ellipsis" format="1">
  <advance width="614"/>
  <unicode hex="2026"/>
  <outline>
    <contour>
      <point x="580" y="56" type="curve" smooth="yes"/>
      <point x="580" y="18"/>
      <point x="553" y="-11"/>
      <point x="513" y="-11" type="curve" smooth="yes"/>
      <point x="474" y="-11"/>
      <point x="446" y="18"/>
      <point x="446" y="56" type="curve" smooth="yes"/>
      <point x="446" y="95"/>
      <point x="474" y="124"/>
      <point x="513" y="124" type="curve" smooth="yes"/>
      <point x="553" y="124"/>
      <point x="580" y="95"/>
    </contour>
    <contour>
      <point x="376" y="56" type="curve" smooth="yes"/>
      <point x="376" y="18"/>
      <point x="348" y="-11"/>
      <point x="309" y="-11" type="curve" smooth="yes"/>
      <point x="270" y="-11"/>
      <point x="242" y="18"/>
      <point x="242" y="56" type="curve" smooth="yes"/>
      <point x="242" y="95"/>
      <point x="270" y="124"/>
      <point x="309" y="124" type="curve" smooth="yes"/>
      <point x="348" y="124"/>
      <point x="376" y="95"/>
    </contour>
    <contour>
      <point x="171" y="56" type="curve" smooth="yes"/>
      <point x="171" y="18"/>
      <point x="143" y="-11"/>
      <point x="104" y="-11" type="curve" smooth="yes"/>
      <point x="65" y="-11"/>
      <point x="37" y="18"/>
      <point x="37" y="56" type="curve" smooth="yes"/>
      <point x="37" y="95"/>
      <point x="65" y="124"/>
      <point x="104" y="124" type="curve" smooth="yes"/>
      <point x="143" y="124"/>
      <point x="171" y="95"/>
    </contour>
  </outline>
</glyph>
<glyph name="perthousand" format="1">
  <advance width="1002"/>
  <unicode hex="2030"/>
  <outline>
    <contour>
      <point x="284" y="494" type="curve" smooth="yes"/>
      <point x="284" y="359"/>
      <point x="248" y="275"/>
      <point x="156" y="275" type="curve" smooth="yes"/>
      <point x="64" y="275"/>
      <point x="30" y="357"/>
      <point x="30" y="492" type="curve" smooth="yes"/>
      <point x="30" y="627"/>
      <point x="66" y="711"/>
      <point x="158" y="711" type="curve" smooth="yes"/>
      <point x="250" y="711"/>
      <point x="284" y="629"/>
    </contour>
    <contour>
      <point x="565" y="700" type="line"/>
      <point x="247" y="0" type="line"/>
      <point x="150" y="0" type="line"/>
      <point x="468" y="700" type="line"/>
    </contour>
    <contour>
      <point x="979" y="208" type="curve" smooth="yes"/>
      <point x="979" y="73"/>
      <point x="943" y="-11"/>
      <point x="851" y="-11" type="curve" smooth="yes"/>
      <point x="759" y="-11"/>
      <point x="725" y="71"/>
      <point x="725" y="206" type="curve" smooth="yes"/>
      <point x="725" y="341"/>
      <point x="761" y="425"/>
      <point x="853" y="425" type="curve" smooth="yes"/>
      <point x="945" y="425"/>
      <point x="979" y="343"/>
    </contour>
    <contour>
      <point x="685" y="208" type="curve" smooth="yes"/>
      <point x="685" y="73"/>
      <point x="649" y="-11"/>
      <point x="557" y="-11" type="curve" smooth="yes"/>
      <point x="465" y="-11"/>
      <point x="431" y="71"/>
      <point x="431" y="206" type="curve" smooth="yes"/>
      <point x="431" y="341"/>
      <point x="467" y="425"/>
      <point x="559" y="425" type="curve" smooth="yes"/>
      <point x="651" y="425"/>
      <point x="685" y="343"/>
    </contour>
    <contour>
      <point x="189" y="492" type="curve" smooth="yes"/>
      <point x="189" y="588"/>
      <point x="184" y="626"/>
      <point x="157" y="626" type="curve" smooth="yes"/>
      <point x="130" y="626"/>
      <point x="126" y="590"/>
      <point x="126" y="494" type="curve" smooth="yes"/>
      <point x="126" y="398"/>
      <point x="131" y="360"/>
      <point x="158" y="360" type="curve" smooth="yes"/>
      <point x="185" y="360"/>
      <point x="189" y="396"/>
    </contour>
    <contour>
      <point x="884" y="206" type="curve" smooth="yes"/>
      <point x="884" y="302"/>
      <point x="878" y="340"/>
      <point x="852" y="340" type="curve" smooth="yes"/>
      <point x="825" y="340"/>
      <point x="821" y="304"/>
      <point x="821" y="208" type="curve" smooth="yes"/>
      <point x="821" y="112"/>
      <point x="826" y="74"/>
      <point x="853" y="74" type="curve" smooth="yes"/>
      <point x="880" y="74"/>
      <point x="884" y="110"/>
    </contour>
    <contour>
      <point x="590" y="206" type="curve" smooth="yes"/>
      <point x="590" y="302"/>
      <point x="584" y="340"/>
      <point x="558" y="340" type="curve" smooth="yes"/>
      <point x="531" y="340"/>
      <point x="527" y="304"/>
      <point x="527" y="208" type="curve" smooth="yes"/>
      <point x="527" y="112"/>
      <point x="532" y="74"/>
      <point x="559" y="74" type="curve" smooth="yes"/>
      <point x="586" y="74"/>
      <point x="590" y="110"/>
    </contour>
  </outline>
</glyph>
<glyph name="guilsinglleft" format="1">
  <advance width="253"/>
  <unicode hex="2039"/>
  <outline>
    <contour>
      <point x="227" y="0" type="line"/>
      <point x="125" y="0" type="line"/>
      <point x="13" y="262" type="line"/>
      <point x="125" y="525" type="line"/>
      <point x="227" y="525" type="line"/>
      <point x="118" y="263" type="line"/>
    </contour>
  </outline>
</glyph>
<glyph name="guilsinglright" format="1">
  <advance width="253"/>
  <unicode hex="203A"/>
  <outline>
    <contour>
      <point x="240" y="263" type="line"/>
      <point x="128" y="0" type="line"/>
      <point x="26" y="0" type="line"/>
      <point x="135" y="262" type="line"/>
      <point x="26" y="525" type="line"/>
      <point x="128" y="525" type="line"/>
    </contour>
  </outline>
</glyph>
<glyph name="Euro" format="1">
  <advance width="365"/>
  <unicode hex="20AC"/>
  <outline>
    <contour>
      <point x="138" y="368" type="line"/>
      <point x="138" y="363"/>
      <point x="138" y="358"/>
      <point x="138" y="352" type="curve" smooth="yes"/>
      <point x="138" y="345"/>
      <point x="138" y="338"/>
      <point x="138" y="331" type="curve"/>
      <point x="256" y="331" type="line"/>
      <point x="256" y="249" type="line"/>
      <point x="140" y="249" type="line"/>
      <point x="145" y="119"/>
      <point x="163" y="88"/>
      <point x="193" y="88" type="curve" smooth="yes"/>
      <point x="218" y="88"/>
      <point x="232" y="117"/>
      <point x="241" y="205" type="curve"/>
      <point x="344" y="189" type="line"/>
      <point x="329" y="55"/>
      <point x="290" y="-11"/>
      <point x="189" y="-11" type="curve" smooth="yes"/>
      <point x="70" y="-11"/>
      <point x="28" y="98"/>
      <point x="28" y="348" type="curve" smooth="yes"/>
      <point x="28" y="597"/>
      <point x="68" y="711"/>
      <point x="191" y="711" type="curve" smooth="yes"/>
      <point x="300" y="711"/>
      <point x="332" y="632"/>
      <point x="342" y="508" type="curve"/>
      <point x="237" y="492" type="line"/>
      <point x="230" y="579"/>
      <point x="219" y="612"/>
      <point x="190" y="612" type="curve" smooth="yes"/>
      <point x="161" y="612"/>
      <point x="144" y="583"/>
      <point x="140" y="450" type="curve"/>
      <point x="256" y="450" type="line"/>
      <point x="256" y="368" type="line"/>
    </contour>
  </outline>
</glyph>
<glyph name="uni2117" format="1">
  <advance width="483"/>
  <unicode hex="2117"/>
  <outline>
    <contour>
      <point x="455" y="350" type="curve" smooth="yes"/>
      <point x="455" y="135"/>
      <point x="382" y="-11"/>
      <point x="241" y="-11" type="curve" smooth="yes"/>
      <point x="100" y="-11"/>
      <point x="28" y="135"/>
      <point x="28" y="350" type="curve" smooth="yes"/>
      <point x="28" y="565"/>
      <point x="100" y="711"/>
      <point x="241" y="711" type="curve" smooth="yes"/>
      <point x="382" y="711"/>
      <point x="455" y="565"/>
    </contour>
    <contour>
      <point x="400" y="350" type="curve" smooth="yes"/>
      <point x="400" y="531"/>
      <point x="354" y="659"/>
      <point x="241" y="659" type="curve" smooth="yes"/>
      <point x="128" y="659"/>
      <point x="83" y="531"/>
      <point x="83" y="350" type="curve" smooth="yes"/>
      <point x="83" y="169"/>
      <point x="128" y="41"/>
      <point x="241" y="41" type="curve" smooth="yes"/>
      <point x="354" y="41"/>
      <point x="400" y="169"/>
    </contour>
    <contour>
      <point x="341" y="435" type="curve" smooth="yes"/>
      <point x="341" y="350"/>
      <point x="298" y="315"/>
      <point x="244" y="315" type="curve" smooth="yes"/>
      <point x="232" y="315" type="line"/>
      <point x="232" y="151" type="line"/>
      <point x="166" y="151" type="line"/>
      <point x="166" y="547" type="line"/>
      <point x="249" y="547" type="line" smooth="yes"/>
      <point x="299" y="547"/>
      <point x="341" y="517"/>
    </contour>
    <contour>
      <point x="274" y="433" type="curve" smooth="yes"/>
      <point x="274" y="478"/>
      <point x="264" y="492"/>
      <point x="242" y="492" type="curve" smooth="yes"/>
      <point x="232" y="492" type="line"/>
      <point x="232" y="371" type="line"/>
      <point x="241" y="371" type="line" smooth="yes"/>
      <point x="264" y="371"/>
      <point x="274" y="389"/>
    </contour>
  </outline>
</glyph>
<glyph name="trademark" format="1">
  <advance width="469"/>
  <unicode hex="2122"/>
  <outline>
    <contour>
      <point x="183" y="641" type="line"/>
      <point x="130" y="641" type="line"/>
      <point x="130" y="303" type="line"/>
      <point x="65" y="303" type="line"/>
      <point x="65" y="641" type="line"/>
      <point x="12" y="641" type="line"/>
      <point x="12" y="700" type="line"/>
      <point x="183" y="700" type="line"/>
    </contour>
    <contour>
      <point x="442" y="303" type="line"/>
      <point x="384" y="303" type="line"/>
      <point x="384" y="432" type="line" smooth="yes"/>
      <point x="384" y="468"/>
      <point x="385" y="500"/>
      <point x="386" y="528" type="curve"/>
      <point x="381" y="503"/>
      <point x="371" y="463"/>
      <point x="363" y="429" type="curve" smooth="yes"/>
      <point x="331" y="292" type="line"/>
      <point x="298" y="429" type="line" smooth="yes"/>
      <point x="290" y="463"/>
      <point x="280" y="502"/>
      <point x="276" y="527" type="curve"/>
      <point x="276" y="500"/>
      <point x="278" y="467"/>
      <point x="278" y="432" type="curve" smooth="yes"/>
      <point x="278" y="303" type="line"/>
      <point x="219" y="303" type="line"/>
      <point x="219" y="700" type="line"/>
      <point x="281" y="700" type="line"/>
      <point x="310" y="575" type="line" smooth="yes"/>
      <point x="319" y="536"/>
      <point x="327" y="498"/>
      <point x="331" y="468" type="curve"/>
      <point x="335" y="498"/>
      <point x="343" y="537"/>
      <point x="352" y="575" type="curve" smooth="yes"/>
      <point x="380" y="700" type="line"/>
      <point x="442" y="700" type="line"/>
    </contour>
  </outline>
</glyph>
<glyph name="arrowleft" format="1">
  <advance width="371"/>
  <unicode hex="2190"/>
  <outline>
    <contour>
      <point x="349" y="301" type="line"/>
      <point x="174" y="301" type="line"/>
      <point x="187" y="256" type="line" smooth="yes"/>
      <point x="191" y="241"/>
      <point x="190" y="234"/>
      <point x="181" y="227" type="curve"/>
      <point x="174" y="223"/>
      <point x="165" y="224"/>
      <point x="154" y="233" type="curve" smooth="yes"/>
      <point x="10" y="351" type="line"/>
      <point x="154" y="469" type="line" smooth="yes"/>
      <point x="165" y="478"/>
      <point x="174" y="478"/>
      <point x="181" y="474" type="curve" smooth="yes"/>
      <point x="190" y="468"/>
      <point x="191" y="460"/>
      <point x="187" y="445" type="curve" smooth="yes"/>
      <point x="174" y="400" type="line"/>
      <point x="349" y="400" type="line"/>
    </contour>
  </outline>
</glyph>
<glyph name="arrowup" format="1">
  <advance width="303"/>
  <unicode hex="2191"/>
  <outline>
    <contour>
      <point x="275" y="544" type="curve"/>
      <point x="268" y="535"/>
      <point x="261" y="534"/>
      <point x="246" y="538" type="curve" smooth="yes"/>
      <point x="201" y="551" type="line"/>
      <point x="201" y="0" type="line"/>
      <point x="102" y="0" type="line"/>
      <point x="102" y="551" type="line"/>
      <point x="57" y="538" type="line" smooth="yes"/>
      <point x="42" y="534"/>
      <point x="35" y="535"/>
      <point x="28" y="544" type="curve"/>
      <point x="24" y="551"/>
      <point x="25" y="560"/>
      <point x="34" y="571" type="curve" smooth="yes"/>
      <point x="151" y="715" type="line"/>
      <point x="269" y="571" type="line" smooth="yes"/>
      <point x="278" y="560"/>
      <point x="279" y="551"/>
    </contour>
  </outline>
</glyph>
<glyph name="arrowright" format="1">
  <advance width="371"/>
  <unicode hex="2192"/>
  <outline>
    <contour>
      <point x="361" y="351" type="line"/>
      <point x="216" y="233" type="line" smooth="yes"/>
      <point x="206" y="225"/>
      <point x="197" y="223"/>
      <point x="190" y="227" type="curve"/>
      <point x="181" y="234"/>
      <point x="179" y="241"/>
      <point x="184" y="256" type="curve" smooth="yes"/>
      <point x="198" y="301" type="line"/>
      <point x="22" y="301" type="line"/>
      <point x="22" y="400" type="line"/>
      <point x="198" y="400" type="line"/>
      <point x="184" y="445" type="line" smooth="yes"/>
      <point x="179" y="460"/>
      <point x="181" y="468"/>
      <point x="190" y="474" type="curve" smooth="yes"/>
      <point x="197" y="478"/>
      <point x="206" y="477"/>
      <point x="216" y="469" type="curve" smooth="yes"/>
    </contour>
  </outline>
</glyph>
<glyph name="arrowdown" format="1">
  <advance width="303"/>
  <unicode hex="2193"/>
  <outline>
    <contour>
      <point x="275" y="156" type="curve"/>
      <point x="279" y="149"/>
      <point x="278" y="140"/>
      <point x="269" y="129" type="curve" smooth="yes"/>
      <point x="151" y="-15" type="line"/>
      <point x="34" y="129" type="line" smooth="yes"/>
      <point x="25" y="140"/>
      <point x="24" y="149"/>
      <point x="28" y="156" type="curve"/>
      <point x="35" y="165"/>
      <point x="42" y="166"/>
      <point x="57" y="162" type="curve" smooth="yes"/>
      <point x="102" y="149" type="line"/>
      <point x="102" y="700" type="line"/>
      <point x="201" y="700" type="line"/>
      <point x="201" y="149" type="line"/>
      <point x="246" y="162" type="line" smooth="yes"/>
      <point x="261" y="166"/>
      <point x="268" y="165"/>
    </contour>
  </outline>
</glyph>
<glyph name="arrowboth" format="1">
  <advance width="535"/>
  <unicode hex="2194"/>
  <outline>
    <contour>
      <point x="525" y="351" type="line"/>
      <point x="380" y="233" type="line" smooth="yes"/>
      <point x="370" y="225"/>
      <point x="361" y="223"/>
      <point x="353" y="227" type="curve"/>
      <point x="345" y="234"/>
      <point x="342" y="241"/>
      <point x="347" y="256" type="curve" smooth="yes"/>
      <point x="361" y="301" type="line"/>
      <point x="174" y="301" type="line"/>
      <point x="187" y="256" type="line" smooth="yes"/>
      <point x="191" y="241"/>
      <point x="190" y="234"/>
      <point x="181" y="227" type="curve"/>
      <point x="174" y="223"/>
      <point x="165" y="224"/>
      <point x="154" y="233" type="curve" smooth="yes"/>
      <point x="10" y="351" type="line"/>
      <point x="154" y="469" type="line" smooth="yes"/>
      <point x="165" y="478"/>
      <point x="174" y="478"/>
      <point x="181" y="474" type="curve" smooth="yes"/>
      <point x="190" y="468"/>
      <point x="191" y="460"/>
      <point x="187" y="445" type="curve" smooth="yes"/>
      <point x="174" y="400" type="line"/>
      <point x="361" y="400" type="line"/>
      <point x="347" y="445" type="line" smooth="yes"/>
      <point x="342" y="460"/>
      <point x="345" y="468"/>
      <point x="353" y="474" type="curve"/>
      <point x="361" y="478"/>
      <point x="370" y="477"/>
      <point x="380" y="469" type="curve" smooth="yes"/>
    </contour>
  </outline>
</glyph>
<glyph name="arrowupdn" format="1">
  <advance width="303"/>
  <unicode hex="2195"/>
  <outline>
    <contour>
      <point x="275" y="156" type="curve"/>
      <point x="279" y="149"/>
      <point x="278" y="140"/>
      <point x="269" y="129" type="curve" smooth="yes"/>
      <point x="151" y="-15" type="line"/>
      <point x="34" y="129" type="line" smooth="yes"/>
      <point x="25" y="140"/>
      <point x="24" y="149"/>
      <point x="28" y="156" type="curve"/>
      <point x="35" y="165"/>
      <point x="42" y="166"/>
      <point x="57" y="162" type="curve" smooth="yes"/>
      <point x="102" y="149" type="line"/>
      <point x="102" y="551" type="line"/>
      <point x="57" y="538" type="line" smooth="yes"/>
      <point x="42" y="534"/>
      <point x="35" y="535"/>
      <point x="28" y="544" type="curve"/>
      <point x="24" y="551"/>
      <point x="25" y="560"/>
      <point x="34" y="571" type="curve" smooth="yes"/>
      <point x="151" y="715" type="line"/>
      <point x="269" y="571" type="line" smooth="yes"/>
      <point x="278" y="560"/>
      <point x="279" y="551"/>
      <point x="275" y="544" type="curve"/>
      <point x="268" y="535"/>
      <point x="261" y="534"/>
      <point x="246" y="538" type="curve" smooth="yes"/>
      <point x="201" y="551" type="line"/>
      <point x="201" y="149" type="line"/>
      <point x="246" y="162" type="line" smooth="yes"/>
      <point x="261" y="166"/>
      <point x="268" y="165"/>
    </contour>
  </outline>
</glyph>
<glyph name="radical" format="1">
  <advance width="369"/>
  <unicode hex="221A"/>
  <outline>
    <contour>
      <point x="364" y="700" type="line"/>
      <point x="225" y="0" type="line"/>
      <point x="112" y="0" type="line"/>
      <point x="10" y="340" type="line"/>
      <point x="120" y="340" type="line"/>
      <point x="138" y="265" type="line" smooth="yes"/>
      <point x="147" y="226"/>
      <point x="158" y="168"/>
      <point x="164" y="117" type="curve"/>
      <point x="168" y="169"/>
      <point x="177" y="243"/>
      <point x="185" y="289" type="curve" smooth="yes"/>
      <point x="253" y="700" type="line"/>
    </contour>
  </outline>
</glyph>
<glyph name="apple" format="1">
  <advance width="598"/>
  <unicode hex="F8FF"/>
  <outline>
    <contour>
      <point x="588" y="351" type="line"/>
      <point x="444" y="233" type="line" smooth="yes"/>
      <point x="433" y="224"/>
      <point x="425" y="223"/>
      <point x="417" y="227" type="curve"/>
      <point x="409" y="234"/>
      <point x="407" y="242"/>
      <point x="411" y="256" type="curve" smooth="yes"/>
      <point x="426" y="303" type="line"/>
      <point x="347" y="303" type="line"/>
      <point x="347" y="141" type="line"/>
      <point x="394" y="156" type="line" smooth="yes"/>
      <point x="409" y="161"/>
      <point x="416" y="158"/>
      <point x="422" y="150" type="curve" smooth="yes"/>
      <point x="427" y="142"/>
      <point x="426" y="134"/>
      <point x="417" y="123" type="curve" smooth="yes"/>
      <point x="299" y="-21" type="line"/>
      <point x="181" y="123" type="line" smooth="yes"/>
      <point x="172" y="134"/>
      <point x="172" y="142"/>
      <point x="176" y="150" type="curve"/>
      <point x="182" y="158"/>
      <point x="189" y="161"/>
      <point x="205" y="156" type="curve" smooth="yes"/>
      <point x="252" y="141" type="line"/>
      <point x="252" y="303" type="line"/>
      <point x="173" y="303" type="line"/>
      <point x="187" y="256" type="line" smooth="yes"/>
      <point x="192" y="241"/>
      <point x="190" y="234"/>
      <point x="181" y="227" type="curve"/>
      <point x="174" y="223"/>
      <point x="165" y="224"/>
      <point x="154" y="233" type="curve" smooth="yes"/>
      <point x="10" y="351" type="line"/>
      <point x="154" y="469" type="line" smooth="yes"/>
      <point x="165" y="478"/>
      <point x="174" y="478"/>
      <point x="181" y="474" type="curve" smooth="yes"/>
      <point x="190" y="468"/>
      <point x="192" y="460"/>
      <point x="187" y="445" type="curve" smooth="yes"/>
      <point x="173" y="398" type="line"/>
      <point x="252" y="398" type="line"/>
      <point x="252" y="559" type="line"/>
      <point x="205" y="544" type="line" smooth="yes"/>
      <point x="189" y="539"/>
      <point x="182" y="542"/>
      <point x="176" y="550" type="curve"/>
      <point x="172" y="558"/>
      <point x="172" y="566"/>
      <point x="181" y="577" type="curve" smooth="yes"/>
      <point x="299" y="721" type="line"/>
      <point x="417" y="577" type="line" smooth="yes"/>
      <point x="426" y="566"/>
      <point x="427" y="558"/>
      <point x="422" y="550" type="curve" smooth="yes"/>
      <point x="416" y="542"/>
      <point x="408" y="540"/>
      <point x="394" y="544" type="curve" smooth="yes"/>
      <point x="347" y="559" type="line"/>
      <point x="347" y="398" type="line"/>
      <point x="426" y="398" type="line"/>
      <point x="411" y="445" type="line" smooth="yes"/>
      <point x="406" y="460"/>
      <point x="409" y="468"/>
      <point x="417" y="474" type="curve"/>
      <point x="425" y="478"/>
      <point x="433" y="478"/>
      <point x="444" y="469" type="curve" smooth="yes"/>
    </contour>
  </outline>
</glyph>
<glyph name="fi" format="1">
  <advance width="411"/>
  <unicode hex="FB01"/>
  <outline>
    <contour>
      <point x="382" y="662" type="curve" smooth="yes"/>
      <point x="382" y="627"/>
      <point x="355" y="599"/>
      <point x="320" y="599" type="curve" smooth="yes"/>
      <point x="285" y="599"/>
      <point x="258" y="627"/>
      <point x="258" y="662" type="curve" smooth="yes"/>
      <point x="258" y="698"/>
      <point x="285" y="726"/>
      <point x="320" y="726" type="curve" smooth="yes"/>
      <point x="355" y="726"/>
      <point x="382" y="698"/>
    </contour>
    <contour>
      <point x="230" y="622" type="line"/>
      <point x="220" y="626"/>
      <point x="207" y="628"/>
      <point x="193" y="628" type="curve" smooth="yes"/>
      <point x="171" y="628"/>
      <point x="159" y="615"/>
      <point x="159" y="588" type="curve" smooth="yes"/>
      <point x="159" y="525" type="line"/>
      <point x="216" y="525" type="line"/>
      <point x="216" y="426" type="line"/>
      <point x="159" y="426" type="line"/>
      <point x="159" y="0" type="line"/>
      <point x="54" y="0" type="line"/>
      <point x="54" y="426" type="line"/>
      <point x="15" y="426" type="line"/>
      <point x="15" y="525" type="line"/>
      <point x="54" y="525" type="line"/>
      <point x="54" y="603" type="line" smooth="yes"/>
      <point x="54" y="686"/>
      <point x="102" y="726"/>
      <point x="161" y="726" type="curve" smooth="yes"/>
      <point x="196" y="726"/>
      <point x="211" y="725"/>
      <point x="230" y="719" type="curve"/>
    </contour>
    <contour>
      <point x="373" y="0" type="line"/>
      <point x="266" y="0" type="line"/>
      <point x="266" y="525" type="line"/>
      <point x="373" y="525" type="line"/>
    </contour>
  </outline>
</glyph>
<glyph name="bullet" format="1">
  <advance width="337"/>
  <outline>
    <contour>
      <point x="285" y="366" type="curve" smooth="yes"/>
      <point x="285" y="301"/>
      <point x="234" y="250"/>
      <point x="168" y="250" type="curve" smooth="yes"/>
      <point x="103" y="250"/>
      <point x="52" y="301"/>
      <point x="52" y="366" type="curve" smooth="yes"/>
      <point x="52" y="432"/>
      <point x="103" y="484"/>
      <point x="168" y="484" type="curve" smooth="yes"/>
      <point x="234" y="484"/>
      <point x="285" y="432"/>
    </contour>
  </outline>
</glyph>
<glyph name="macron" format="1">
  <advance width="330"/>
  <outline>
    <contour>
      <point x="291" y="607" type="line"/>
      <point x="39" y="607" type="line"/>
      <point x="39" y="686" type="line"/>
      <point x="291" y="686" type="line"/>
    </contour>
  </outline>
</glyph>
<glyph name="registered" format="1">
  <advance width="483"/>
  <outline>
    <contour>
      <point x="455" y="350" type="curve" smooth="yes"/>
      <point x="455" y="135"/>
      <point x="382" y="-11"/>
      <point x="241" y="-11" type="curve" smooth="yes"/>
      <point x="100" y="-11"/>
      <point x="28" y="135"/>
      <point x="28" y="350" type="curve" smooth="yes"/>
      <point x="28" y="565"/>
      <point x="100" y="711"/>
      <point x="241" y="711" type="curve" smooth="yes"/>
      <point x="382" y="711"/>
      <point x="455" y="565"/>
    </contour>
    <contour>
      <point x="400" y="350" type="curve" smooth="yes"/>
      <point x="400" y="531"/>
      <point x="354" y="659"/>
      <point x="241" y="659" type="curve" smooth="yes"/>
      <point x="128" y="659"/>
      <point x="83" y="531"/>
      <point x="83" y="350" type="curve" smooth="yes"/>
      <point x="83" y="169"/>
      <point x="128" y="41"/>
      <point x="241" y="41" type="curve" smooth="yes"/>
      <point x="354" y="41"/>
      <point x="400" y="169"/>
    </contour>
    <contour>
      <point x="340" y="161" type="line"/>
      <point x="272" y="161" type="line"/>
      <point x="238" y="335" type="line"/>
      <point x="235" y="334"/>
      <point x="228" y="334"/>
      <point x="225" y="334" type="curve"/>
      <point x="225" y="161" type="line"/>
      <point x="159" y="161" type="line"/>
      <point x="159" y="557" type="line"/>
      <point x="243" y="557" type="line" smooth="yes"/>
      <point x="294" y="557"/>
      <point x="336" y="526"/>
      <point x="336" y="448" type="curve" smooth="yes"/>
      <point x="336" y="404"/>
      <point x="322" y="373"/>
      <point x="300" y="355" type="curve"/>
    </contour>
    <contour>
      <point x="268" y="446" type="curve" smooth="yes"/>
      <point x="268" y="487"/>
      <point x="259" y="503"/>
      <point x="235" y="503" type="curve" smooth="yes"/>
      <point x="225" y="503" type="line"/>
      <point x="225" y="387" type="line"/>
      <point x="235" y="387" type="line" smooth="yes"/>
      <point x="258" y="387"/>
      <point x="268" y="407"/>
    </contour>
  </outline>
</glyph>
